<?xml version="1.0" encoding="UTF-8" standalone="no"?>
<svg
   width="23.6222in"
   height="24.3333in"
   viewBox="0 0 2126 2190"
   version="1.1"
   id="svg1"
   sodipodi:docname="aeon4.svg"
   inkscape:version="1.3.2 (091e20e, 2023-11-25, custom)"
   xmlns:inkscape="http://www.inkscape.org/namespaces/inkscape"
   xmlns:sodipodi="http://sodipodi.sourceforge.net/DTD/sodipodi-0.dtd"
   xmlns="http://www.w3.org/2000/svg"
   xmlns:svg="http://www.w3.org/2000/svg">
  <defs
     id="defs1" />
  <sodipodi:namedview
     id="namedview1"
     pagecolor="#ffffff"
     bordercolor="#000000"
     borderopacity="0.25"
     inkscape:showpageshadow="2"
     inkscape:pageopacity="0.0"
     inkscape:pagecheckerboard="0"
     inkscape:deskcolor="#d1d1d1"
     inkscape:document-units="in"
     showgrid="false"
     inkscape:zoom="0.33690115"
     inkscape:cx="1669.6292"
     inkscape:cy="986.93637"
     inkscape:window-width="1920"
     inkscape:window-height="1001"
     inkscape:window-x="-9"
     inkscape:window-y="-9"
     inkscape:window-maximized="1"
     inkscape:current-layer="svg1" />
  <g
     id="g17"
     transform="translate(-2587.9282,-16.696315)">
    <path
       id="Selection"
       fill="none"
       stroke="#000000"
       stroke-width="1"
       d="m 2588.9282,185.65437 c 0,0 50,-1 50,-1 0,0 17,1 17,1 0,0 19,0 19,0 0,0 12,0.96 12,0.96 0,0 17,0 17,0 0,0 12,1 12,1 0,0 14,0 14,0 0,0 12,1 12,1 0,0 17,0 17,0 0,0 17,1.04 17,1.04 0,0 80,0 80,0 0,0 15,1 15,1 0,0 67,0 67,0 0,0 15,1 15,1 0,0 31,0 31,0 0,0 17,1 17,1 0,0 53,1 53,1 0,0 15,1 15,1 0,0 13,0 13,0 0,0 16,1 16,1 0,0 32,1 32,1 0,0 21,1 21,1 0,0 15,1 15,1 0,0 25,1 25,1 0,0 11,0.96 11,0.96 0,0 8,0 8,0 0,0 18,1.04 18,1.04 0,0 26,2 26,2 0,0 9,0 9,0 0,0 37,2.91 37,2.91 82.17,5.62 164.03,13.16 246,21.93 200.1,21.4 436.92,59.71 630,114.74 75.5,21.52 155.66,47.44 227,80.11 44.66,20.46 88.57,43.11 128,72.68 45.27,33.96 94.3,85.97 83.39,147.63 -10.18,57.47 -64.21,99.95 -111.39,128.4 -52.79,31.84 -110.09,54.68 -168,75.29 -59.44,21.15 -134.32,41.8 -196,55.96 -123.66,28.38 -248.22,50.08 -374,66.63 0,0 -142,16.89 -142,16.89 0,0 -186,16.92003 -186,16.92003 0,0 -61,4.82 -61,4.82 0,0 -39,2.18 -39,2.18 0,0 -26,1.91 -26,1.91 0,0 -24,1.09 -24,1.09 0,0 -12,0.91 -12,0.91 0,0 -17,1 -17,1 0,0 -25,1 -25,1 0,0 -10,0.96 -10,0.96 0,0 -12,0 -12,0 0,0 -15,1.04 -15,1.04 0,0 -22,1.04 -22,1.04 0,0 -13,0 -13,0 0,0 -10,0.96 -10,0.96 0,0 -14,0 -14,0 0,0 -13,1 -13,1 0,0 -13,0 -13,0 0,0 -16,1 -16,1 0,0 -18,0 -18,0 0,0 -16,1 -16,1 0,0 -22,0 -22,0 0,0 -14,1 -14,1 0,0 -29,0 -29,0 0,0 -17,1 -17,1 0,0 -46,0 -46,0 0,0 -17,1 -17,1 0,0 -149,0 -149,0 0,0 -82,0 -82,0 0,0 -15,-1 -15,-1 0,0 -31,0 -31,0 0,0 -17,-1 -17,-1 0,0 -14,0 -14,0 0,0 -19,-1 -19,-1 0,0 0,-227.00003 0,-227.00003 0,0 156,0 156,0 0,0 78,0 78,0 0,0 15,-1 15,-1 0,0 55,0 55,0 0,0 17,-1 17,-1 0,0 37,0 37,0 0,0 16,-1 16,-1 0,0 28,0 28,0 0,0 16,-1 16,-1 0,0 22,0 22,0 0,0 17,-1 17,-1 0,0 17,0 17,0 0,0 16,-1 16,-1 0,0 17,0 17,0 0,0 15,-1 15,-1 0,0 62,-2 62,-2 0,0 15,-1.04 15,-1.04 0,0 13,0 13,0 0,0 12,-0.96 12,-0.96 0,0 23,-1 23,-1 0,0 19,-1 19,-1 0,0 26,-1 26,-1 0,0 16,-1 16,-1 0,0 17,-1 17,-1 0,0 38,-2 38,-2 0,0 11,-1 11,-1 0,0 9,0 9,0 0,0 23,-2 23,-2 0,0 9,0 9,0 0,0 44,-3.09 44,-3.09 0,0 47,-3.82 47,-3.82 0,0 159,-13.92 159,-13.92 100.1,-10.01 199.68,-22.65 299,-39.09 86.77,-14.37 193.85,-37.01 276,-67.13 0,0 40,-16.53 40,-16.53 24.14,-10.52 58.73,-30.18 75.39,-50.42 9.65,-11.73 16.43,-23.46 17.02,-39 0.65,-17.16 -8.1,-34.99 -18.67,-48 -17.65,-21.72 -39.85,-36.95 -63.74,-50.99 -32.65,-19.18 -73.26,-35.94 -109,-48.7 -46.87,-16.74 -94.72,-30.77 -143,-42.84 0,0 -63,-14.84 -63,-14.84 0,0 -57,-12.03 -57,-12.03 0,0 -113,-20.68 -113,-20.68 -103.55,-17.14 -207.63,-30.65 -312,-41.09 -65.3,-6.53 -130.57,-12.44 -196,-16.92 0,0 -43,-3 -43,-3 0,0 -25,-1.91 -25,-1.91 0,0 -37,-2 -37,-2 0,0 -10,-1 -10,-1 0,0 -11,0 -11,0 0,0 -14,-1 -14,-1 0,0 -16,-1 -16,-1 0,0 -18,-1.04 -18,-1.04 0,0 -10,0 -10,0 0,0 -10,-0.96 -10,-0.96 0,0 -30,-1 -30,-1 0,0 -17,-1.04 -17,-1.04 0,0 -13,0 -13,0 0,0 -12,-1 -12,-1 0,0 -15,0 -15,0 0,0 -11,-0.96 -11,-0.96 0,0 -15,0 -15,0 0,0 -13,-1 -13,-1 0,0 -18,0 -18,0 0,0 -17,-1 -17,-1 0,0 -22,0 -22,0 0,0 -16,-1 -16,-1 0,0 -30,0 -30,0 0,0 -17,-1 -17,-1 0,0 -52,0 -52,0 0,0 -17,-1 -17,-1 0,0 -188,0 -188,0 z m 858,1384.00003 c 0,0 -4,-53 -4,-53 0,0 0,-12 0,-12 0,0 0.91,-12 0.91,-12 3.81,-55.43 23.17,-107.43 56.46,-152 29.29,-39.22 63.91,-66.74 107.63,-88.24 36.81,-18.11 82.1,-27.23 123,-26.76 0,0 10,1.04 10,1.04 0,0 9,0 9,0 26.8,2.68 44.54,6.78 70,15.29 24.32,8.14 48.16,21.11 69,35.96 25.8,18.39 48.16,40.94 66.57,66.71 74.75,104.6 70.32,251.41 -11.18,351 -24.73,30.22 -55.38,55.74 -90.39,73.25 -34.36,17.18 -68.65,27.2 -107,29.84 0,0 -10,0.91 -10,0.91 0,0 -20,0 -20,0 -10.28,-0.02 -26.69,-2.04 -37,-3.75 -58.04,-9.68 -108.7,-35.91 -150.83,-76.97 -22.22,-21.64 -39.12,-44.02 -53.86,-71.28 0,0 -8.45,-17 -8.45,-17 -1.22,-2.74 -2.36,-6.37 -5.07,-7.98 -2.07,-1.22 -5.42,-1.02 -7.79,-1.02 0,0 -96,0 -96,0 0,0 -14,-1 -14,-1 0,0 -17,0 -17,0 0,0 -16,-1 -16,-1 0,0 -33,-1.91 -33,-1.91 0,0 -63,-5.26 -63,-5.26 0,0 -24,-2.83 -24,-2.83 0,0 0,126 0,126 0,0 267,0 267,0 0,0 0,56 0,56 0,0 -323,0 -323,0 0,0 0,-185 0,-185 -0.01,-2.65 0.33,-6.38 -1.6,-8.44 -1.95,-2.09 -8.44,-2.97 -11.4,-3.69 0,0 -28,-7.59 -28,-7.59 -20.61,-6.21 -52.09,-19.23 -68,-33.45 -14.22,-12.72 -20.68,-26.66 -12.11,-44.83 2.27,-4.82 5.48,-9.15 9.15,-13 5.66,-5.93 12.04,-11.16 18.96,-15.56 11.03,-7.03 26.59,-13.79 39,-18.1 11.58,-4.01 42.44,-12.39 54,-13.34 0,0 0,-170 0,-170 0,0 -34.02,48 -34.02,48 0,0 -54.7,78 -54.7,78 0,0 -173.86,248 -173.86,248 0,0 -74.28,106 -74.28,106 0,0 -15.42,22 -15.42,22 0,0 -8.02,9.98 -8.02,9.98 0,0 -7.7,1.02 -7.7,1.02 0,0 -64,0 -64,0 0,0 36.98,-54 36.98,-54 0,0 67.3,-97 67.3,-97 0,0 129.7,-187 129.7,-187 0,0 59.6,-86 59.6,-86 0,0 68.56,-99 68.56,-99 0,0 14.58,-21 14.58,-21 0,0 7.46,-8.98 7.46,-8.98 0,0 7.82,-1.02 7.82,-1.02 0,0 363,0 363,0 0,0 0,60 0,60 0,0 -267,0 -267,0 0,0 0,143 0,143 0,0 58,-5.02 58,-5.02 6.49,-0.3 15.87,-2.41 22,0 -20.75,0.08 -58.46,9.16 -80,12.02 0,0 0,106 0,106 0,0 44,5.72 44,5.72 0,0 60,6.11 60,6.11 0,0 21,1.26 21,1.26 0,0 12,0.91 12,0.91 0,0 18,1 18,1 0,0 23,1 23,1 z m 595,-332 c 0,0 48,0 48,0 0,0 7.68,1.02 7.68,1.02 0,0 7.3,8.98 7.3,8.98 0,0 13.3,19 13.3,19 0,0 65.39,94 65.39,94 0,0 51.61,74 51.61,74 0,0 94,135 94,135 0,0 55,79 55,79 0,0 29.72,42 29.72,42 0,0 0,-453 0,-453 0,0 60,0 60,0 0,0 0,554 0,554 0,0 -52,0 -52,0 0,0 -7.83,-1.02 -7.83,-1.02 0,0 -7.51,-8.98 -7.51,-8.98 0,0 -13.37,-19 -13.37,-19 0,0 -65.31,-93 -65.31,-93 0,0 -146.26,-208 -146.26,-208 0,0 -52,-74 -52,-74 0,0 -31.72,-45 -31.72,-45 0,0 0,449 0,449 0,0 -56,0 -56,0 z m -515,380 c 9.67,22.45 27.82,44.85 45,62 19.58,19.54 41.11,33.47 66,45.22 20.91,9.87 55.87,18.74 79,18.78 0,0 19,0 19,0 14.81,-0.02 37.62,-4.48 52,-8.58 83.76,-23.9 147.06,-96.9 161.41,-182.42 1.6,-9.5 3.48,-23.51 3.59,-33 0.42,-35.98 -6.06,-72.6 -22.25,-105 -17.09,-34.21 -37.09,-59.94 -67.75,-83.35 -63.92,-48.8 -152.54,-59.26 -226,-26.79 -25.95,11.47 -49.02,28.13 -69,48.14 -19.64,19.67 -35.29,43.52 -46.28,69 -9.73,22.55 -16.02,46.49 -17.81,71 0,0 -0.91,11 -0.91,11 0,0 0,30 0,30 0,0 1,14 1,14 0.16,3.36 1.24,15.03 3.73,17.05 2.57,1.99 10.08,0.26 13.27,0 0,0 37,-3.03 37,-3.03 29.94,-2.02 89.46,-12.22 118,-21 14.73,-4.53 35.74,-11.46 46.98,-22.11 2.06,-1.95 4.29,-4.36 5.57,-6.91 6.84,-13.69 -8.56,-25.94 -18.55,-32.31 -17.13,-10.91 -45.17,-20.59 -65,-25.81 0,0 -33,-7.88 -33,-7.88 0,0 47,7.4 47,7.4 28.4,5.68 66.75,15.16 91,30.94 16.88,10.99 34.67,29.97 25.54,51.66 -1.64,3.89 -4.31,7.75 -7,11 -14.63,17.64 -46.06,29.84 -67.54,37 -37.23,12.41 -77.18,20.55 -116,26.27 z m -392,-154 c -17.23,5.74 -34.84,11.43 -50,21.75 -5.69,3.87 -13.45,10.06 -14.65,17.25 -1.39,8.35 6.43,15.44 12.65,19.64 14.12,9.54 35.31,16 52,19.36 z m -255,601 c 0,2.74 0.32,11.64 -0.57,13.68 -1.03,2.34 -4.32,4.28 -6.43,5.63 -6.18,3.94 -14.83,7.42 -22,9.03 -9.54,2.13 -15.45,1.67 -25,1.66 -17.46,-0.03 -34.76,-7.55 -46.96,-20.01 -10.47,-10.69 -16.32,-23.67 -19.91,-37.99 -7.67,-30.52 -5.75,-69.86 15.19,-95 15.72,-18.85 38.35,-28.27 62.68,-28 14.61,0.17 33.3,4.8 46,12 0,0 -7,18 -7,18 -10.58,-8.72 -13.55,-15.96 -29,-20.56 -26.57,-7.91 -51.64,10.27 -62.68,33.56 -12.45,26.26 -12.65,62.22 -1.72,89 9.39,22.97 30.05,39.1 55.4,37.96 10.09,-0.45 22.61,-6.39 31,-11.82 z m 757,-9 c 7.03,1.2 9.11,9.96 13.32,15 7.18,8.58 16.37,13.46 27.68,12.96 23.06,-1.01 33.15,-32.35 25.12,-50.96 -6.71,-15.58 -23.39,-20.65 -37.12,-27.78 -18.61,-9.68 -29.81,-22.23 -28.96,-44.22 0.29,-7.48 2.03,-15.26 5.28,-22 10.56,-21.89 38.73,-29.78 60.68,-21.91 5.67,2.03 9.16,4.52 14,7.91 0,0 -7,19 -7,19 -6.91,-8.59 -10.34,-16.73 -22,-21.04 -18.31,-6.77 -34.8,11.86 -35,29.04 -0.05,4.74 -0.08,8.44 1.55,13 9.92,27.8 54.32,24.77 64.41,55 1.49,4.47 1.98,7.31 2.04,12 0,0 0,8 0,8 -0.11,22.84 -13.49,44.13 -35,52.54 -13.08,5.11 -27.86,2.44 -40,-3.8 -3.05,-1.57 -10.5,-5.66 -11.6,-8.91 -0.7,-2.06 1.08,-6.52 1.58,-8.83 1.29,-5.88 1.02,-9.12 1.02,-15 z m 724,9 c 0,2.74 0.32,11.64 -0.57,13.68 -1.03,2.34 -4.32,4.28 -6.43,5.63 -6.35,4.05 -14.66,7.3 -22,9.04 -9.49,2.24 -15.44,1.66 -25,1.65 -17.39,-0.03 -34.8,-7.59 -46.96,-20.01 -10.1,-10.32 -16.52,-24.09 -19.91,-37.99 -7.46,-30.55 -5.77,-69.85 15.19,-95 15.75,-18.89 38.3,-28.27 62.68,-28 14.61,0.17 33.3,4.8 46,12 0,0 -8,18 -8,18 -4.37,-5.78 -8.89,-10.35 -15,-14.3 -24.56,-15.91 -52.89,-6.62 -69.22,16.3 -18.7,26.25 -20.64,70.85 -8.06,100 9.99,23.14 29.25,39.13 55.28,37.96 10.46,-0.47 22.34,-6.21 31,-11.82 z m -1436,-147 c 0,0 46,0 46,0 10.5,0.13 24.74,2.41 32.83,9.52 9.06,7.96 9.3,19.43 9.17,30.48 -0.27,22.93 -16.73,42.04 -40,44 0,0 17.67,28 17.67,28 0,0 22,34 22,34 0,0 16.33,27 16.33,27 0,0 -16,0 -16,0 -2.13,0 -5.58,0.25 -7.37,-0.99 -2.46,-1.72 -8.91,-16.34 -10.94,-20.01 0,0 -34.69,-47 -34.69,-47 -2.21,-3.31 -8.51,-13.5 -11.18,-15.4 -3.8,-2.7 -7.91,-1.34 -8.78,3.42 0,0 0,4.98 0,4.98 0,0 0,42 0,42 0,0 0,33 0,33 0,0 -15.04,0 -15.04,0 z m 142,0 c 0,0 76,0 76,0 0,0 0,12 0,12 0,0 -57,0 -57,0 0,0 0,61 0,61 0,0 53,0 53,0 -4.15,8.33 -3.8,6.41 0,15 0,0 -10,-2.68 -10,-2.68 -11.71,-2.09 -30.52,-1.32 -43,-1.32 0,0 0,78 0,78 0,0 24,-1.13 24,-1.13 0,0 17,-2.87 17,-2.87 0,0 16,0 16,0 0,0 0,15 0,15 0,0 -76,0 -76,0 z m 121,0 c 0,0 76,0 76,0 6.15,0.01 12.06,0.75 18,2.43 34.28,9.67 39.05,47.22 39,77.57 -0.02,10.98 -1.9,26.35 -4.63,37 -2.5,9.76 -6.58,19.74 -12.41,28 -8.16,11.55 -20.82,18.29 -33.96,22.67 -9.66,3.22 -19.78,5.31 -30,5.33 0,0 -52,0 -52,0 z m 178,0 c 0,0 20,0 20,0 0,0 0,173 0,173 0,0 -20,0 -20,0 z m 59,0 c 0,0 110,0 110,0 0,0 0,12 0,12 0,0 -44,0 -44,0 0,0 0,161 0,161 0,0 -20,0 -20,0 0,0 0,-161 0,-161 0,0 -46,0 -46,0 2.13,-5.74 2.13,-6.26 0,-12 z m 338,0 c 0,0 76,0 76,0 0,0 0,12 0,12 0,0 -57,0 -57,0 0,0 0,61 0,61 0,0 53,0 53,0 0,0 0,15 0,15 0,0 -9,-2.69 -9,-2.69 -10.84,-2.15 -32.07,-1.31 -44,-1.31 0,0 0,78 0,78 0,0 27,-1.29 27,-1.29 0,0 19,-2.71 19,-2.71 0,0 14,0 14,0 -3.89,7.02 -3.56,7.93 0,15 0,0 -79,0 -79,0 z m 121,0 c 0,0 56,0.84 56,0.84 9.74,1.04 19.41,2.4 26.96,9.34 9.65,8.88 9.18,18.88 9.04,30.82 -0.29,24.5 -20.12,41.89 -44,43 0,0 42.35,66 42.35,66 7.21,10.41 12.32,10.71 17.65,23 0,0 -16,0 -16,0 -2.05,0 -5.1,0.11 -6.99,-0.6 -5.03,-1.9 -9.8,-10.8 -12.43,-15.4 0,0 -25.58,-40 -25.58,-40 0,0 -12.67,-19 -12.67,-19 -1.84,-2.76 -4.54,-7.41 -7.42,-8.98 -2.11,-1.14 -4.6,-0.99 -6.91,-1.02 0,0 0,85 0,85 0,0 -20,0 -20,0 z m 122,0 c 0,0 11,0 11,0 0,0 7.49,1.02 7.49,1.02 0,0 4.36,9.98 4.36,9.98 0,0 7.49,22 7.49,22 0,0 11.32,31 11.32,31 0,0 13.68,43 13.68,43 0,0 11.66,39 11.66,39 6.49,-1.08 6.39,-4.43 8.6,-10 0,0 8.73,-23 8.73,-23 0,0 9.09,-31 9.09,-31 0,0 15.72,-53 15.72,-53 0,0 5.72,-19 5.72,-19 0.99,-3.38 1.91,-7.11 5.25,-8.98 2.56,-1.43 8.8,-1.02 11.89,-1.02 0,0 -16.31,48 -16.31,48 0,0 -32.69,92 -32.69,92 0,0 -11,33 -11,33 0,0 -7.5,-1.02 -7.5,-1.02 0,0 -5.5,-10.98 -5.5,-10.98 0,0 -10.68,-28 -10.68,-28 0,0 -33.01,-90 -33.01,-90 z m 169,0 c 0,0 20,0 20,0 0,0 0,173 0,173 0,0 -20,0 -20,0 z m 227,0 c 0,0 76,0 76,0 0,0 0,12 0,12 0,0 -57,0 -57,0 0,0 0,52 0,52 0.06,8.74 1.76,8.98 10,9 0,0 43,0 43,0 0,0 0,15 0,15 -15.37,-5.12 -29.01,-4.29 -45,-4 -8.15,0.15 -7.99,2.78 -8,10 0,0 0,51 0,51 0,12.98 -1.58,16.82 8,17 0,0 6,0 6,0 0,0 27,-3.91 27,-3.91 0,0 19,0 19,0 -3.73,7.33 -3.16,7.41 0,14.91 0,0 -79,0 -79,0 z m -1462,77 c 15.36,2.03 29.31,3.99 43,-5.79 18.32,-13.07 21.1,-44.88 2,-58.58 -2.33,-1.67 -6.19,-3.63 -9,-4.44 0,0 -36,0 -36,0 z m 267,-69 c 0,0 0,145 0,145 0,1.99 -0.23,5.81 1.02,7.4 1.58,2 5.67,1.57 7.98,1.6 0,0 19,1 19,1 5.94,-0.07 17.41,-1.51 23,-3.36 5.04,-1.66 8.52,-3.91 13,-6.64 30.15,-18.45 30.36,-52.66 30,-84 -0.17,-14.38 -5.14,-32.88 -14.46,-43.99 -9.12,-10.85 -26.61,-16.84 -40.54,-17.01 0,0 -14,0 -14,0 z m 697,69 c 4.24,0.76 10.82,1.9 15,1.98 12.34,0.25 26.84,-4.68 33.1,-15.98 8.54,-15.43 8.68,-54.64 -18.1,-55 0,0 -30,0 -30,0 z"
       style="fill:#ffffff" />
    <path
       style="fill:#ff7f2a;fill-rule:evenodd;stroke-width:2.67141"
       d="m 2633.1474,1023.5735 -41.0451,-1.0732 V 909.87458 797.24886 l 163.4847,-0.0338 c 311.2578,-0.0643 557.6549,-10.36457 834.1199,-34.86902 406.6465,-36.04306 674.4212,-97.65005 748.6503,-172.24218 17.7515,-17.83837 23.5541,-30.17408 23.5541,-50.07386 0,-48.75244 -57.263,-95.36563 -171.2963,-139.43852 C 3915.3783,294.21495 3326.698,224.23371 2705.4981,224.04355 l -113.3958,-0.0347 V 205.92117 187.8335 l 31.3056,0.0376 c 88.0485,0.10566 462.764,8.75482 539.1517,12.44468 610.2633,29.47832 1129.408,138.75986 1346.6467,283.47324 40.6258,27.06279 76.6934,63.38553 90.2046,90.8424 12.2983,24.9924 16.5719,47.52777 12.8367,67.69051 -23.2365,125.4316 -272.2543,232.68208 -708.0935,304.97165 -213.5053,35.41261 -512.199,62.95832 -787.5093,72.62482 -85.1933,2.9912 -413.8616,5.4758 -483.4974,3.6551 z"
       id="path1" />
    <path
       style="fill:#ffffff;fill-rule:evenodd;stroke-width:2.67141"
       d="m 3696.7956,1796.1719 c -93.2906,-10.9281 -176.3519,-68.0465 -219.9352,-151.242 l -12.1154,-23.1271 -79.4377,-1.8189 c -71.7821,-1.6438 -172.6398,-7.8462 -188.6594,-11.602 l -6.2611,-1.4679 v 65.4468 65.4469 h 132.1791 132.1792 v 26.4358 26.4359 h -158.5789 -158.5789 l -0.7318,-96.3972 c -0.6254,-82.3966 -1.338,-96.7022 -4.9058,-98.497 -2.2957,-1.1548 -15.9314,-5.4327 -30.3014,-9.5061 -48.4107,-13.723 -84.5703,-36.7145 -88.2038,-56.083 -5.4209,-28.8957 34.5417,-59.4228 96.9294,-74.0436 l 27.1218,-6.3561 0.01,-86.96 c 0.01,-47.828 -0.9294,-86.9238 -2.0773,-86.8795 -1.1478,0.044 -82.7028,115.1764 -181.2333,255.8492 -98.5305,140.6729 -180.9666,256.4674 -183.1914,257.321 -2.2247,0.8538 -17.8033,1.5523 -34.619,1.5523 h -30.5739 l 15.0966,-21.5661 c 8.3032,-11.8613 86.2002,-124.2483 173.1045,-249.749 86.9044,-125.5005 166.1697,-239.766 176.1452,-253.923 l 18.1374,-25.7402 h 183.2254 183.2255 v 27.8272 27.8272 h -132.1792 -132.1791 v 73.538 c 0,67.6962 0.3868,73.639 4.8698,74.8106 4.6378,1.212 4.6378,1.288 0,1.5954 -4.4636,0.2958 -4.8698,4.9323 -4.8698,55.5808 v 55.2579 l 16.0006,1.7857 c 8.8004,0.9821 32.9057,3.7415 53.5674,6.1319 20.6617,2.3904 71.8313,5.0708 113.7104,5.9564 l 76.1437,1.6104 -2.0374,-14.8138 c -3.5756,-25.9972 -2.2094,-75.2438 2.737,-98.6643 22.7562,-107.7464 102.5387,-193.0186 207.3764,-221.6461 20.4505,-5.5842 29.8664,-6.437 69.5666,-6.2996 38.1119,0.1318 49.617,1.1792 67.6995,6.1639 86.6654,23.8905 157.2477,86.0954 190.1676,167.597 15.595,38.6095 18.672,56.3956 18.7615,108.4478 0.097,56.6921 -4.2739,78.2222 -24.6458,121.3895 -16.0839,34.0813 -31.8588,56.7074 -57.0522,81.831 -45.9056,45.7781 -101.4682,72.1196 -169.8132,80.506 -25.7837,3.1639 -29.0682,3.1662 -55.7733,0.037 z m 87.0717,-58.1355 c 11.8976,-3.08 33.1854,-11.5417 47.3062,-18.8037 20.8783,-10.7372 30.6672,-18.1628 52.402,-39.7508 27.3021,-27.1177 42.8208,-49.976 54.8624,-80.8101 33.1484,-84.8804 13.7867,-181.9637 -49.0109,-245.7513 -47.9748,-48.7311 -108.393,-71.9118 -176.7568,-67.8167 -60.3754,3.6167 -107.373,25.8562 -149.8937,70.9304 -28.342,30.044 -48.0498,67.8083 -56.7105,108.6696 -5.0483,23.8173 -5.419,92.0339 -0.5363,98.6831 3.2406,4.4132 6.331,4.4583 45.2192,0.6611 117.6377,-11.4871 187.1578,-35.5552 180.9652,-62.6509 -2.3896,-10.4557 -21.4487,-26.4194 -41.1809,-34.4932 -21.2447,-8.6926 -16.4198,-9.3969 10.1825,-1.4866 47.9628,14.2622 74.042,35.0916 74.042,59.1372 0,35.8604 -82.3857,69.2322 -214.2693,86.7939 -19.1312,2.5475 -35.2315,5.046 -35.7784,5.552 -2.1415,1.9818 16.7502,31.3684 30.7516,47.8352 34.867,41.006 83.5495,69.0471 136.2707,78.4917 21.5146,3.8542 67.1218,1.2847 92.135,-5.1909 z M 3137.5151,1502.668 c 0,-25.8851 -1.0297,-40.3494 -2.8724,-40.3494 -1.5799,0 -12.8624,3.8525 -25.0721,8.5611 -23.6147,9.1067 -41.6234,23.141 -41.6234,32.4373 0,12.969 15.788,25.1893 44.5235,34.4623 26.6423,8.5974 25.0444,10.8375 25.0444,-35.1113 z"
       id="path2" />
    <path
       style="fill:#ffffff;fill-rule:evenodd;stroke-width:1.3357"
       d="m 3694.0589,1796.851 c -68.2075,-9.2011 -125.3515,-38.2289 -172.2274,-87.4874 -21.0894,-22.1614 -35.6811,-43.1004 -50.1761,-72.0026 l -7.6878,-15.329 -6.5446,-0.8971 c -3.5996,-0.4934 -27.2756,-0.9051 -52.6132,-0.9151 -70.6974,-0.027 -129.4163,-3.0549 -206.4227,-10.6425 l -8.696,-0.8568 v 64.1958 64.1958 h 133.5705 133.5705 v 26.4358 26.4358 h -160.702 -160.702 l -0.021,-94.9603 c -0.012,-52.9318 -0.5685,-95.8245 -1.2576,-96.9129 -0.6799,-1.074 -12.0969,-4.9261 -25.371,-8.5602 -49.8581,-13.6495 -84.039,-32.5331 -93.5936,-51.7067 -7.6387,-15.3289 -3.5472,-28.9475 13.5868,-45.2231 10.9171,-10.3702 28.6597,-20.4898 49.2074,-28.0661 12.3626,-4.5582 48.9346,-14.0624 54.1121,-14.0624 h 3.3372 v -87.2382 c 0,-47.981 -0.5141,-86.6434 -1.1426,-85.9165 -2.1762,2.5176 -29.4507,41.3383 -189.104,269.1586 -88.2173,125.8831 -162.932,232.1656 -166.0326,236.1832 l -5.6376,7.3046 h -33.3109 c -18.321,0 -33.3109,-0.3704 -33.3109,-0.823 0,-1.2621 20.2343,-30.6383 147.5014,-214.142 64.749,-93.3602 141.1149,-203.5559 169.7019,-244.8792 28.5871,-41.3234 54.7249,-78.7336 58.0841,-83.1338 l 6.1077,-8.0002 h 184.2737 184.2738 v 28.5228 28.5229 h -133.6612 -133.6611 l 0.4385,71.5866 c 0.278,45.3837 0.9478,72.0491 1.8299,72.8502 0.8303,0.7541 6.7212,0.7633 14.6092,0.024 21.0327,-1.9738 23.0707,-0.723 4.2881,2.6318 -9.5029,1.6974 -17.9554,3.7628 -18.7833,4.5898 -1.7972,1.7953 -3.024,107.1056 -1.2479,107.1212 0.6236,0.01 10.2125,1.226 21.3086,2.7123 65.2495,8.74 122.2047,12.572 186.9448,12.5781 h 49.8959 l -0.7774,-4.5219 c -0.4275,-2.487 -1.5551,-16.2429 -2.5057,-30.5686 -2.7877,-42.0123 1.5859,-77.166 14.2194,-114.2898 24.7379,-72.6935 76.1919,-130.9318 146.3938,-165.6958 85.9165,-42.5461 189.9686,-36.0179 271.5946,17.0396 153.5654,99.8189 174.2394,321.419 41.7987,448.0331 -41.9563,40.1104 -91.7922,65.0144 -149.629,74.7724 -15.7132,2.6511 -61.7979,3.8258 -75.8291,1.9331 z m 52.1759,-52.8086 c 52.578,-5.4479 96.9309,-25.6358 133.6731,-60.8437 40.9837,-39.2722 62.9776,-81.459 71.6321,-137.3986 3.1641,-20.4518 2.1254,-59.0724 -2.1252,-79.0124 -6.4953,-30.4708 -16.9586,-55.3617 -34.0263,-80.9446 -34.0139,-50.9838 -82.7034,-83.7404 -144.1092,-96.9517 -12.6092,-2.7129 -18.7047,-3.1432 -44.5235,-3.1432 -32.9671,0 -45.9602,1.8981 -71.6096,10.4612 -53.7136,17.9325 -101.8277,59.7648 -127.9201,111.2187 -19.4857,38.4257 -27.3739,77.2035 -25.3176,124.4585 1.3747,31.5927 3.2228,36.4139 13.3607,34.8549 2.6784,-0.4119 16.4528,-1.7135 30.6099,-2.8925 76.7129,-6.3887 147.3205,-22.6027 171.2596,-39.3273 29.5218,-20.6248 11.2613,-44.4737 -50.3809,-65.7987 -18.9099,-6.5419 -12.8397,-6.1327 16.0399,1.0813 46.258,11.555 74.2424,26.0419 86.8894,44.9808 10.6174,15.9 9.1914,28.1403 -5.0526,43.3684 -24.587,26.2854 -96.5704,49.1698 -197.885,62.91 -19.5138,2.6464 -36.8642,5.0107 -38.5564,5.2538 l -3.0768,0.4422 2.8159,6.2594 c 4.4986,9.9999 19.58,31.6308 31.6792,45.4363 46.8634,53.4727 118.8114,82.6135 186.6234,75.5872 z m -610.8067,-241.5253 v -39.8045 l -3.8262,0.9573 c -8.2861,2.0731 -30.7028,10.9898 -38.6331,15.367 -10.6828,5.8966 -20.6657,14.6753 -22.9447,20.177 -4.1651,10.0556 3.9806,20.6263 23.2349,30.1524 10.2845,5.0883 33.4712,12.7363 39.0385,12.8765 l 3.1306,0.079 z"
       id="path3" />
    <path
       style="fill:#ffffff;fill-rule:evenodd;stroke-width:1.3357"
       d="m 4042.5944,1514.4946 v -275.4891 h 26.3795 26.3795 l 3.5797,3.8262 c 1.9689,2.1044 22.5582,31.0621 45.7541,64.3503 23.1959,33.2884 85.5695,122.8222 138.608,198.9644 123.3139,177.0296 129.8875,186.3739 131.1399,186.4111 0.574,0.017 1.0435,-102.0251 1.0435,-226.7605 v -226.7915 h 28.5229 28.5229 v 275.4891 275.4891 h -28.6127 -28.6127 l -3.5107,-4.1722 c -4.2179,-5.0127 3.2514,5.5664 -137.5315,-194.7922 -62.6426,-89.1513 -128.0274,-182.1289 -145.2996,-206.6168 l -31.4042,-44.5235 -0.352,225.0524 -0.352,225.0523 h -27.1274 -27.1272 z"
       id="path4" />
    <path
       style="fill:#ffffff;fill-rule:evenodd;stroke-width:0.236122"
       d="m 2820.3603,2093.7833 c -5.4141,-0.5428 -12.3826,-2.1989 -17.1943,-4.0863 -19.1888,-7.5268 -32.9461,-22.1157 -40.3143,-42.7513 -5.5054,-15.4186 -8.1352,-34.6862 -7.0505,-51.6558 1.3534,-21.173 7.4972,-38.8182 18.1887,-52.2385 17.2101,-21.6027 45.2896,-32.0778 74.5184,-27.7994 11.1206,1.6278 22.5907,5.102 31.3218,9.487 1.9287,0.9686 2.1759,1.1661 2.0532,1.6397 -0.077,0.2963 -1.4991,4.0417 -3.1608,8.3231 -2.4603,6.3394 -3.0897,7.7481 -3.3901,7.5873 -0.203,-0.1084 -2.5349,-2.2841 -5.1821,-4.8346 -7.2542,-6.9892 -9.666,-8.9642 -13.5803,-11.1207 -3.8751,-2.1348 -9.9583,-4.226 -14.8112,-5.0914 -3.4098,-0.6081 -9.735,-0.7286 -13.3297,-0.2538 -15.3536,2.0278 -29.7656,11.7001 -39.802,26.7123 -14.3757,21.5027 -18.6642,56.7907 -10.5365,86.7008 5.8104,21.3827 17.1892,36.3937 33.6611,44.406 7.6355,3.714 15.0014,5.402 23.5633,5.3999 5.8217,0 10.683,-0.9228 16.6512,-3.1558 7.3231,-2.74 11.7581,-5.1106 22.0884,-11.8069 2.7469,-1.7805 5.054,-3.2373 5.1271,-3.2373 0.2825,0 -0.068,11.1917 -0.374,11.929 -1.1156,2.6912 -9.0932,7.757 -17.3721,11.0314 -5.754,2.2757 -11.2702,3.7502 -17.2172,4.6021 -2.4611,0.3525 -20.8308,0.5167 -23.8581,0.2132 z"
       id="path5" />
    <path
       style="fill:#ffffff;fill-rule:evenodd;stroke-width:0.236122"
       d="m 2925.5082,2004.1322 v -85.9794 l 25.2724,0.1027 c 21.4299,0.087 25.7211,0.1629 28.2239,0.4987 20.8535,2.7974 30.3948,10.3066 32.7173,25.7492 0.5339,3.5495 0.7521,12.8819 0.3883,16.6022 -0.6126,6.2644 -1.9592,10.9875 -4.6982,16.4794 -0.9446,1.8939 -2.4651,4.4949 -3.3791,5.78 -2.1348,3.0022 -6.9123,7.7773 -9.9018,9.8971 -5.8098,4.1197 -13.4681,6.9928 -20.4942,7.6888 -1.1288,0.1119 -1.6421,0.2606 -1.5678,0.4543 0.2648,0.6899 20.422,32.4069 29.7527,46.8152 5.6227,8.6825 13.6254,21.4108 17.7838,28.2853 4.1584,6.8745 7.7273,12.756 7.931,13.0699 l 0.3704,0.5709 -10.0626,-0.083 c -12.0266,-0.1 -11.4828,0.014 -13.3664,-2.8022 -0.6672,-0.9976 -3.0491,-5.4663 -5.2932,-9.9306 l -4.08,-8.1169 -17.2952,-23.4317 c -9.5124,-12.8875 -18.599,-25.424 -20.1924,-27.859 -3.5605,-5.4409 -6.6859,-9.6362 -8.0466,-10.8009 -2.8925,-2.4759 -6.9788,-2.3911 -8.8438,0.1835 -1.5269,2.1077 -1.4448,-0.3435 -1.4448,43.1287 v 39.6779 h -6.8868 -6.8869 z m 41.7407,-7.9529 c 16.8757,-3.1741 28.3966,-15.3742 30.96,-32.7852 0.5467,-3.7136 0.3676,-10.3237 -0.3733,-13.7745 -2.4254,-11.2979 -9.5899,-19.8464 -19.8789,-23.7191 l -1.546,-0.582 h -18.5644 -18.5644 v 34.9067 34.9068 l 0.6764,0.1352 c 1.0142,0.2028 8.4471,1.102 11.2527,1.3613 4.2293,0.3908 12.8565,0.1492 16.0379,-0.4492 z"
       id="path6" />
    <path
       style="fill:#ffffff;fill-rule:evenodd;stroke-width:0.236122"
       d="m 3067.427,2004.1486 v -85.9629 h 37.3859 37.3859 v 5.4111 5.4111 h -28.4083 -28.4084 v 31.1139 31.114 h 26.1947 c 14.4072,0 26.1948,0.04 26.1948,0.09 0,0.05 -0.5027,1.1512 -1.1171,2.4482 -1.7365,3.6658 -1.7279,4.6071 0.079,8.5961 0.4759,1.051 0.8032,1.973 0.7272,2.0489 -0.076,0.076 -2.0244,-0.3643 -4.3298,-0.9784 -2.3054,-0.6141 -5.4417,-1.2852 -6.9696,-1.4913 -6.5769,-0.8871 -17.5456,-1.2344 -31.074,-0.984 l -9.7047,0.1797 v 39.5641 39.5642 l 0.6764,-0.01 c 0.372,0 6.0998,-0.2774 12.7284,-0.6073 l 12.0521,-0.5998 7.8707,-1.3599 7.8707,-1.3597 7.8092,-7e-4 7.8092,-6e-4 v 6.8869 6.8868 h -37.3859 -37.3859 z"
       id="path7" />
    <path
       style="fill:#ffffff;fill-rule:evenodd;stroke-width:0.667852"
       d="m 3188.6476,2004.3303 v -85.9937 h 39.132 c 42.2011,0 47.9218,0.3724 56.995,3.6659 22.5601,8.1888 33.5856,29.3729 35.1083,67.4563 1.3679,34.2117 -7.7163,65.4562 -23.2529,79.9772 -8.9238,8.3404 -24.1776,15.3013 -41.0125,18.7156 -6.8102,1.3811 -10.1859,1.5483 -37.2296,1.8436 l -29.7403,0.3249 z m 64.2087,75.0562 c 7.0856,-1.4357 11.7772,-3.5566 20.0487,-9.0632 7.2566,-4.831 13.4742,-11.0697 17.1939,-17.2524 7.1754,-11.9266 10.1669,-23.957 11.4062,-45.87 1.4026,-24.8007 -0.7859,-40.0625 -7.8217,-54.5464 -5.5733,-11.4731 -13.3329,-18.6151 -25.2182,-23.211 -10.3548,-4.0042 -12.7338,-4.2903 -38.6076,-4.6442 l -23.8361,-0.3261 0.183,76.5623 c 0.1729,72.3589 0.251,76.6305 1.4221,77.8044 1.0442,1.0468 3.2871,1.3516 14.2614,1.9379 13.9591,0.7457 22.2628,0.3727 30.9683,-1.3913 z"
       id="path8" />
    <path
       style="fill:#ffffff;fill-rule:evenodd;stroke-width:0.667852"
       d="m 3366.7416,2004.253 v -85.9164 h 9.0438 9.0439 v 85.9164 85.9164 h -9.0439 -9.0438 z"
       id="path9" />
    <path
       style="fill:#ffffff;fill-rule:evenodd;stroke-width:0.667852"
       d="m 3471.7892,2009.4707 v -80.6989 h -22.4357 -22.4356 v -5.2176 -5.2176 h 53.7412 53.7413 v 5.2176 5.2176 h -22.2618 -22.2617 v 80.6989 80.6987 h -9.0439 -9.0438 z"
       id="path10" />
    <path
       style="fill:#ffffff;fill-rule:evenodd;stroke-width:0.667852"
       d="m 3665.3223,2093.6043 c -8.677,-1.1401 -17.128,-4.4304 -25.1668,-9.7985 -4.8556,-3.2425 -5.5024,-4.7819 -4.1691,-9.9215 0.5054,-1.948 1.2561,-6.6001 1.6684,-10.338 l 0.7497,-6.7964 1.632,1.1432 c 0.8975,0.6286 3.5977,4.1566 6.0005,7.8398 2.4027,3.6832 5.5816,7.8511 7.064,9.262 6.9073,6.5735 16.9504,10.2007 25.9241,9.3628 12.3136,-1.15 22.76,-11.748 26.1998,-26.5803 1.5984,-6.8924 1.4035,-17.2543 -0.4276,-22.7343 -3.9181,-11.7256 -10.6376,-17.5799 -31.9566,-27.8422 -11.6969,-5.6306 -18.8153,-10.3596 -24.0876,-16.0024 -7.6346,-8.1709 -10.6717,-16.3277 -10.6813,-28.6862 -0.015,-19.5901 8.756,-34.7961 24.4118,-42.3206 8.8915,-4.2735 15.3478,-5.5958 25.2081,-5.1625 9.4493,0.4153 16.8147,2.5863 23.5723,6.9485 l 4.5976,2.9679 -2.9549,8.0003 c -1.6251,4.4002 -3.2437,7.8515 -3.5967,7.6696 -0.353,-0.1818 -2.734,-3.0377 -5.2911,-6.3463 -12.4677,-16.1321 -29.2045,-18.4307 -41.7944,-5.7401 -7.3513,7.41 -10.7058,16.5592 -10.0364,27.3742 0.6444,10.4121 4.4047,17.3089 13.3833,24.5465 2.3961,1.9316 10.2621,6.4282 18.7431,10.7147 16.6932,8.4371 20.8495,11.0652 25.7902,16.3069 4.0786,4.3273 6.5711,8.4304 8.3985,13.8257 1.0742,3.1721 1.2864,5.8485 1.2409,15.6528 -0.05,10.7545 -0.2241,12.3821 -1.9217,17.9538 -3.3591,11.0257 -7.9353,18.4521 -16.0261,26.008 -10.5706,9.8718 -23.5547,14.3902 -36.474,12.6926 z"
       id="path11" />
    <path
       style="fill:#ffffff;fill-rule:evenodd;stroke-width:0.667852"
       d="m 3763.9747,2004.253 v -85.9164 h 37.2188 37.2189 v 5.2176 5.2176 h -28.5229 -28.5229 v 31.3056 31.3056 h 26.4359 26.4358 v 6.5756 6.5757 l -3.3045,-1.036 c -1.8174,-0.5697 -5.0263,-1.3341 -7.1307,-1.6985 -5.5711,-0.9647 -29.2579,-1.6572 -36.3493,-1.0627 l -6.0872,0.5103 v 39.5913 39.5912 l 2.261,-0.013 c 8.032,-0.048 28.3741,-1.5974 36.3529,-2.7699 5.2054,-0.765 11.9356,-1.3908 14.9562,-1.3908 h 5.4918 l -1.0081,2.4125 c -1.2908,3.0893 -1.2772,5.8172 0.045,8.9812 l 1.0528,2.5198 h -38.2717 -38.2717 z"
       id="path12" />
    <path
       style="fill:#ffffff;fill-rule:evenodd;stroke-width:0.667852"
       d="m 3885.0229,2004.3296 v -85.84 l 26.6098,0.3308 c 35.0895,0.4362 42.654,1.5014 51.2029,7.2101 5.1491,3.4384 8.8724,8.3538 10.664,14.0785 1.8146,5.7977 1.9394,21.6818 0.2227,28.3346 -2.5969,10.0633 -10.2437,20.2014 -19.3073,25.5974 -5.2167,3.1057 -12.7674,5.6519 -18.2904,6.1676 -2.4948,0.233 -4.693,0.6776 -4.8848,0.988 -0.1919,0.3105 9.4251,15.7984 21.3711,34.4176 16.4565,25.6494 23.0399,35.3078 27.1666,39.8562 2.9957,3.3016 6.7145,7.8814 8.264,10.1772 l 2.8173,4.174 -4.3943,0.2276 c -2.4169,0.1252 -7.3243,0.015 -10.9055,-0.2445 -6.1406,-0.4453 -6.6613,-0.6077 -9.1474,-2.8538 -1.4498,-1.3098 -3.8732,-4.3303 -5.3852,-6.7122 -21.1191,-33.2694 -27.6279,-43.4016 -35.8521,-55.811 -5.3252,-8.0351 -10.4936,-15.4721 -11.4854,-16.5268 -1.8579,-1.9756 -5.3115,-3.2893 -8.6652,-3.2962 h -1.9131 v 42.7843 42.7843 h -9.0439 -9.0438 z m 43.37,-7.7065 c 3.0129,-0.537 7.7565,-2.0651 10.5951,-3.4131 9.4749,-4.4997 14.7528,-11.2536 17.4652,-22.3496 1.6621,-6.7996 1.6375,-20.7818 -0.047,-26.4358 -1.8454,-6.1959 -5.1801,-11.988 -8.4391,-14.6584 -5.3821,-4.4103 -7.0596,-4.7223 -26.943,-5.0117 l -17.9137,-0.2607 v 35.4687 35.4688 l 4.6958,0.7433 c 10.4371,1.6522 13.4633,1.7182 20.5865,0.4485 z"
       id="path13" />
    <path
       style="fill:#ffffff;fill-rule:evenodd;stroke-width:0.472243"
       d="m 4073.9932,2089.3747 -2.9764,-0.4297 -2.8166,-5.6584 c -1.5492,-3.1122 -5.115,-11.6766 -7.924,-19.032 -6.706,-17.5598 -35.7949,-96.8612 -45.0541,-122.8257 -4.0041,-11.2281 -7.5282,-21.0562 -7.8313,-21.8403 l -0.5509,-1.4256 7.0253,0.3238 c 10.5523,0.4865 9.6724,0.075 12.0763,5.6431 1.1291,2.6153 4.0361,10.5104 6.4598,17.5449 2.4238,7.0345 6.7134,19.0989 9.5325,26.8097 5.6476,15.4477 15.9643,47.5313 24.6479,76.652 3.0918,10.3683 5.7516,18.9816 5.9108,19.1407 0.5096,0.5096 4.1382,-0.8377 5.6247,-2.0885 1.5892,-1.3373 1.5468,-1.2397 8.1581,-18.7602 2.7701,-7.3412 6.5951,-18.9425 9.407,-28.5313 7.032,-23.9806 23.6248,-79.7979 25.5689,-86.0123 2.8214,-9.0187 3.9951,-10.1188 11.1822,-10.4802 2.3674,-0.119 4.3043,-0.1078 4.3043,0.025 0,0.994 -18.7086,55.016 -33.093,95.5575 -9.5995,27.0556 -19.3901,55.0582 -21.7569,62.2279 -2.3668,7.1697 -4.4417,13.1604 -4.6109,13.3127 -0.1691,0.1522 -1.6468,0.083 -3.2837,-0.1529 z"
       id="path14" />
    <path
       style="fill:#ffffff;fill-rule:evenodd;stroke-width:0.472243"
       d="m 4175.5993,2004.1486 v -85.84 h 9.3466 9.3464 v 85.84 85.8401 h -9.3464 -9.3466 z"
       id="path15" />
    <path
       style="fill:#ffffff;fill-rule:evenodd;stroke-width:0.472243"
       d="m 4297.8414,2093.1796 c -9.0423,-1.4356 -19.0676,-5.3751 -27.0556,-10.6315 -2.1644,-1.4242 -6.4008,-5.0368 -9.4142,-8.0278 -12.0729,-11.9832 -18.8535,-26.4827 -22.5573,-48.2353 -5.0687,-29.7685 -0.4012,-58.4947 12.7088,-78.2152 9.0736,-13.6488 23.695,-24.5763 39.6774,-29.6532 17.0983,-5.4314 34.2587,-5.295 53.9971,0.429 5.9973,1.7392 16.8191,6.2168 17.1577,7.0991 0.1313,0.342 -1.2701,4.0796 -3.1143,8.3056 l -3.3531,7.6834 -3.5943,-3.9261 c -4.6649,-5.0957 -10.2886,-9.2965 -16.5045,-12.3287 -7.9021,-3.8548 -11.3387,-4.6081 -20.9765,-4.5988 -7.3713,0.01 -8.5232,0.1292 -12.5439,1.3305 -9.6791,2.892 -17.9204,8.0659 -25.3941,15.9425 -5.1449,5.4224 -8.5508,10.4131 -12.0022,17.5874 -6.7116,13.9508 -9.7873,28.9844 -9.7622,47.7162 0.014,10.485 0.3949,14.5939 2.2118,23.8581 5.5564,28.3322 22.8032,49.415 45.1063,55.1393 16.0533,4.1203 30.3568,1.0216 48.2945,-10.4623 3.1113,-1.992 6.5064,-4.1452 7.5445,-4.785 l 1.8874,-1.1633 -0.1657,6.0269 -0.1657,6.027 -2.1219,1.8817 c -5.4304,4.8163 -16.2201,9.7246 -27.1473,12.3496 -5.5729,1.3388 -25.8399,1.742 -32.7127,0.6509 z"
       id="path16" />
    <path
       style="fill:#ffffff;fill-rule:evenodd;stroke-width:0.472243"
       d="m 4402.8663,2004.1486 v -85.84 h 37.1399 37.14 v 5.4112 5.411 h -28.5499 -28.55 l 0.1415,28.9004 c 0.1272,25.936 0.2262,29.0544 0.9656,30.4032 1.5908,2.9018 1.3647,2.8769 27.8304,3.072 l 24.227,0.1785 v 6.3548 c 0,3.4952 -0.096,6.3549 -0.2146,6.3549 -0.1181,0 -2.4532,-0.542 -5.1893,-1.2045 -7.9437,-1.9235 -13.2856,-2.3177 -29.1184,-2.1488 -13.9182,0.1486 -14.6644,0.2039 -15.9874,1.1858 -0.7633,0.5664 -1.6521,1.7839 -1.9749,2.7055 -0.7549,2.1544 -0.8935,68.146 -0.1488,70.8269 0.2687,0.967 1.0594,2.2953 1.7571,2.9515 1.1831,1.1128 1.6911,1.2041 7.5332,1.3536 5.1736,0.1323 8.3923,-0.1462 18.4824,-1.5988 10.6594,-1.5346 13.4289,-1.759 21.7127,-1.759 h 9.4948 l -0.9489,2.0907 c -1.2199,2.6875 -1.216,5.121 0.013,8.2396 0.5411,1.3728 0.9839,2.5985 0.9839,2.7238 0,0.1252 -17.2664,0.2278 -38.3697,0.2278 h -38.3698 z"
       id="path17" />
  </g>
</svg>
