<?xml version="1.0" encoding="UTF-8" standalone="no"?>
<svg
   width="1.66667in"
   height="0.953333in"
   viewBox="0 0 500 286"
   version="1.1"
   id="svg1"
   sodipodi:docname="kept2.svg"
   xml:space="preserve"
   inkscape:version="1.3.2 (091e20e, 2023-11-25, custom)"
   xmlns:inkscape="http://www.inkscape.org/namespaces/inkscape"
   xmlns:sodipodi="http://sodipodi.sourceforge.net/DTD/sodipodi-0.dtd"
   xmlns="http://www.w3.org/2000/svg"
   xmlns:svg="http://www.w3.org/2000/svg"><defs
     id="defs1" /><sodipodi:namedview
     id="namedview1"
     pagecolor="#ffffff"
     bordercolor="#000000"
     borderopacity="0.25"
     inkscape:showpageshadow="2"
     inkscape:pageopacity="0.0"
     inkscape:pagecheckerboard="0"
     inkscape:deskcolor="#d1d1d1"
     inkscape:document-units="in"
     inkscape:zoom="2.9322776"
     inkscape:cx="163.35425"
     inkscape:cy="60.874181"
     inkscape:window-width="1920"
     inkscape:window-height="1001"
     inkscape:window-x="-9"
     inkscape:window-y="-9"
     inkscape:window-maximized="1"
     inkscape:current-layer="svg1" /><g
     id="g5"><path
       id="Selection"
       fill="none"
       stroke="#000000"
       stroke-width="1"
       d="m 12,65.361018 c 0,0 32,0 32,0 0,0 12.4,1.02 12.4,1.02 0,0 1.6,7.98 1.6,7.98 0,0 0,37.000002 0,37.000002 0,0 1,21 1,21 1.55,-5.28 7.25,-11.33 10.49,-16.01 0,0 27.29,-37.330002 27.29,-37.330002 6.38,-8.73 6.77,-13.64 18.22,-13.66 0,0 49,0 49,0 -0.89,7.86 -8.08,13.87 -13,20.03 0,0 -33.85,40.840002 -33.85,40.840002 0,0 -9.52,11.85 -9.52,11.85 -1.4,1.64 -3.96,4.18 -4.4,6.29 -0.55,2.68 1.42,4.92 2.82,6.98 0,0 10.51,14.84 10.51,14.84 0,0 23.95,32.51 23.95,32.51 0,0 17.49,24.66 17.49,24.66 -6.32,3.33 -16.78,2 -24,2 0,0 -25,0 -25,0 -1.83,0 -5.06,0.13 -6.7,-0.57 -3.39,-1.47 -9.69,-12.86 -12.03,-16.43 0,0 -32.27,-50 -32.27,-50 0,0 0,58 0,58 -0.02,8.64 -0.36,8.98 -9,9 0,0 -25,0 -25,0 -2.41,0 -8.6,0.4 -10.4,-1.02 -1.98,-1.57 -1.6,-5.68 -1.6,-7.98 z m 403,0 c 0,0 32,0 32,0 0,0 12.4,1.02 12.4,1.02 0,0 1.6,6.98 1.6,6.98 0,0 0,28.000002 0,28.000002 0,0 21,0 21,0 0,0 5.98,1.6 5.98,1.6 0,0 1.02,7.4 1.02,7.4 0,0 0,28 0,28 0,0 -1.74,8.01 -1.74,8.01 0,0 -7.26,0.99 -7.26,0.99 0,0 -19,0 -19,0 0,0 0,59 0,59 0,3.48 0.92,15.99 -1.6,17.98 -1.59,1.25 -5.41,1.02 -7.4,1.02 0,0 -28,0 -28,0 -2.45,0 -6.29,0.38 -8.07,-1.6 -2.1,-2.34 -1.93,-8.36 -1.93,-11.4 0,0 0,-93 0,-93 z M 336,232.36102 c 0,0 0,22 0,22 -0.04,1.95 0.1,4.63 -1.6,5.98 -1.59,1.25 -5.41,1.02 -7.4,1.02 0,0 -32,0 -32,0 -2.66,0 -10.51,0.48 -12.4,-1.02 -1.98,-1.57 -1.6,-5.68 -1.6,-7.98 0,0 0,-116 0,-116 0,0 0,-26 0,-26 0,-1.99 -0.23,-5.81 1.02,-7.4 1.57,-1.98 5.68,-1.6 7.98,-1.6 0,0 12,0 12,0 7.05,-0.12 9.63,-2.620002 16,-4.830002 4.77,-1.65 13.89,-3.16 19,-3.17 0,0 5,0 5,0 15.39,0.08 33.7,9.050002 44.7,19.610002 9.31,8.95 21.12,30.39 21.3,43.39 0,0 0,13 0,13 -0.01,9.01 -0.35,5.59 -2.53,13 -4.44,15.15 -11.66,26.95 -24.51,36.62 -13.59,10.22 -28.3,13.38 -44.96,13.38 z m -84,-16 c -3.23,6.44 -11.34,8.17 -17.96,9.13 0,0 -9.05,2.78 -9.05,2.78 0,0 -23.99,0 -23.99,0 -6.79,-0.01 -5.41,-0.79 -11,-2.44 -20.85,-6.14 -37.91,-22.38 -44.32,-43.47 0,0 -1.13,-6 -1.13,-6 -0.99,-4.34 -2.25,-8.49 -2.45,-13 -0.24,-5.4 1.35,-9.02 2.45,-14 0,0 0.86,-5.91 0.86,-5.91 0,0 2.23,-5.26 2.23,-5.26 4.78,-11.55 9.85,-19.51 19.82,-27.41 5.31,-4.2 17.04,-10.51 23.54,-12.010002 0,0 8,-0.73 8,-0.73 2.76,-0.45 5.14,-1.52 8,-1.49 0,0 8,1.6 8,1.6 0,0 9,0.51 9,0.51 10.02,2.070002 25.64,11.840002 32.13,19.790002 5.22,6.4 10.43,14.79 12.4,22.91 0,0 0.85,6 0.85,6 1.91,9.37 2.64,5.44 2.62,17 -0.01,9.52 -0.25,10.98 -10,11 0,0 -79,0 -79,0 1.05,3.89 2.11,5.04 5,7.85 9.59,9.31 20.77,7.55 33,7.14 3.12,-0.11 8.58,-1.81 10.67,-0.95 2.34,0.95 5.44,5.84 6.91,7.96 z m -51,-87.67 c -5.87,1.4 -11.95,4.37 -15.26,9.67 -1.93,3.09 -2.52,7.49 1.41,9.26 1.93,0.88 5.68,0.74 7.85,0.74 0,0 27,0 27,0 2.48,0 6.6,0.22 8.69,-1.17 5.78,-3.87 -1.16,-11.63 -4.69,-14.2 -7.51,-5.44 -16.16,-5.28 -25,-4.3 z"
       style="fill:#ffffff" /><path
       id="Selection #2"
       fill="none"
       stroke="#000000"
       stroke-width="1.08368"
       d="m 326.33912,91.214412 c 3.33143,-0.557313 4.18041,-0.557313 7.52259,-0.579168 0,0 11.82121,0 11.82121,0 14.48636,0.0765 31.51965,8.654742 41.90082,18.675446 13.80933,13.34272 23.30929,36.12697 22.53554,55.6329 -0.68779,17.29855 -11.68151,39.98446 -24.6741,51.0105 -19.17186,16.26042 -32.63729,15.93259 -55.88209,15.64847 -15.50728,-0.1967 -40.26735,-16.57733 -46.67229,-30.59756 -1.83766,-4.01047 -1.67647,-7.73681 -1.68722,-12.02048 0,0 0,-55.73125 0,-55.73125 0,-2.79748 -0.11821,-6.06487 0.69854,-8.74215 3.095,-10.19555 20.01008,-23.62569 29.39182,-28.06234 z"
       style="fill:#ffd400;fill-opacity:1" /></g></svg>
