<?xml version="1.0" encoding="UTF-8" standalone="no"?>
<!-- Created with Inkscape (http://www.inkscape.org/) -->

<svg
   width="92.868752mm"
   height="63.5mm"
   viewBox="0 0 92.868752 63.5"
   version="1.1"
   id="svg1"
   xml:space="preserve"
   sodipodi:docname="me.svg"
   inkscape:version="1.3.2 (091e20e, 2023-11-25, custom)"
   xmlns:inkscape="http://www.inkscape.org/namespaces/inkscape"
   xmlns:sodipodi="http://sodipodi.sourceforge.net/DTD/sodipodi-0.dtd"
   xmlns="http://www.w3.org/2000/svg"
   xmlns:svg="http://www.w3.org/2000/svg"><sodipodi:namedview
     id="namedview1"
     pagecolor="#ffffff"
     bordercolor="#000000"
     borderopacity="0.25"
     inkscape:showpageshadow="2"
     inkscape:pageopacity="0.0"
     inkscape:pagecheckerboard="0"
     inkscape:deskcolor="#d1d1d1"
     inkscape:document-units="mm"
     inkscape:zoom="1.9830139"
     inkscape:cx="207.26027"
     inkscape:cy="154.05843"
     inkscape:window-width="1920"
     inkscape:window-height="1001"
     inkscape:window-x="-9"
     inkscape:window-y="-9"
     inkscape:window-maximized="1"
     inkscape:current-layer="layer1" /><defs
     id="defs1" /><g
     inkscape:label="Layer 1"
     inkscape:groupmode="layer"
     id="layer1"
     transform="translate(-48.871352,-62.045812)"><g
       id="g23"
       transform="translate(-87.264384,50.443658)"><g
         id="g13"
         transform="translate(87.793551,-50.434593)"><path
           style="fill:#cbcdd1"
           d="m 102.22193,125.24338 c -0.28673,-0.28673 -0.20102,-6.42697 0.0975,-6.98476 0.22418,-0.41889 0.56271,-0.51177 1.86522,-0.51177 2.71885,0 3.83404,1.04755 3.22563,3.02996 -0.19852,0.64681 -0.16898,1.03646 0.12045,1.58885 0.55123,1.05206 0.23524,2.47562 -0.62186,2.80148 -0.75255,0.28612 -4.41745,0.34573 -4.68694,0.0762 z m 4.06599,-1.42803 c 0.44055,-0.82316 -0.11278,-1.306 -1.49665,-1.306 -1.1473,0 -1.15823,0.009 -1.15823,0.92604 0,0.92006 0.008,0.92604 1.18131,0.92604 0.92273,0 1.2453,-0.11954 1.47357,-0.54608 z m -0.87771,-2.79339 c 0.70989,-0.19031 1.0316,-1.04019 0.59354,-1.56802 -0.17842,-0.21498 -0.77068,-0.38417 -1.34477,-0.38417 -0.98634,0 -1.02594,0.034 -1.02594,0.88194 0,1.25131 0.3394,1.4557 1.77717,1.07025 z m 4.49378,4.23056 c -0.10204,-0.10204 -0.18553,-0.77076 -0.18553,-1.48603 0,-1.02739 -0.23615,-1.73722 -1.12448,-3.38012 -0.80832,-1.4949 -1.04393,-2.16077 -0.838,-2.36825 0.46726,-0.47073 0.9931,-0.081 1.7804,1.31958 0.40797,0.72576 0.78756,1.31957 0.84353,1.31957 0.056,0 0.43556,-0.59381 0.84354,-1.31957 0.78767,-1.40125 1.31359,-1.79066 1.78039,-1.3183 0.20614,0.20859 -0.008,0.82324 -0.76381,2.19148 -0.78054,1.41317 -1.08635,2.3087 -1.19063,3.48656 -0.10132,1.14446 -0.25421,1.6066 -0.5501,1.66279 -0.22537,0.0428 -0.49326,-0.006 -0.59531,-0.10771 z m 7.67636,0.003 c -0.10394,-0.10394 -0.18898,-1.35258 -0.18898,-2.77475 v -2.58576 l -0.99219,-0.0821 c -0.80473,-0.0666 -1.00852,-0.19734 -1.07864,-0.69199 -0.16493,-1.16346 0.33288,-1.37483 3.22771,-1.37045 1.47377,0.002 2.83794,0.10444 3.0315,0.22715 0.19988,0.12671 0.31418,0.5536 0.26458,0.98813 -0.0768,0.67281 -0.20586,0.77488 -1.07043,0.84662 l -0.98311,0.0816 -0.0752,2.69654 -0.0752,2.69655 -0.9355,0.0787 c -0.51452,0.0433 -1.02054,-0.006 -1.12448,-0.11024 z m 5.02703,-5e-5 c -0.10391,-0.10391 -0.18892,-1.76369 -0.18892,-3.6884 0,-3.76183 0.0224,-3.82067 1.4552,-3.82067 1.12864,0 1.4226,0.29622 1.99202,2.00734 0.31057,0.93325 0.66432,1.69683 0.78611,1.69683 0.12179,0 0.47554,-0.76358 0.78611,-1.69683 0.57971,-1.74205 0.85821,-2.0103 2.0798,-2.00329 1.3385,0.008 1.3891,0.16169 1.30927,3.98526 l -0.0741,3.55131 h -0.92604 c -0.87911,0 -0.9302,-0.0503 -1.00816,-0.99218 -0.0964,-1.16501 -0.4455,-1.29689 -0.70422,-0.26607 -0.26059,1.03827 -0.63112,1.39055 -1.46262,1.39055 -0.8315,0 -1.20203,-0.35228 -1.46262,-1.39055 -0.25872,-1.03082 -0.6078,-0.89894 -0.70422,0.26607 -0.0737,0.88983 -0.16499,1.0003 -0.88538,1.07087 -0.44179,0.0433 -0.88828,-0.006 -0.99219,-0.11024 z m 8.92774,-0.44906 c -0.0928,-0.3696 -0.12813,-1.99479 -0.0786,-3.61152 0.069,-2.25296 0.18275,-2.998 0.48694,-3.18995 0.60793,-0.38362 3.60939,-0.30524 4.62929,0.1209 0.98128,0.41 1.21218,0.92836 1.18636,2.66327 -0.009,0.58208 0.0563,1.59411 0.14443,2.24896 0.26509,1.97038 -0.0904,2.21419 -3.40714,2.33697 l -2.79261,0.10337 z m 4.24479,-1.63605 c 0,-0.4205 -0.20376,-0.54603 -0.99218,-0.61129 -0.91503,-0.0757 -0.99219,-0.0282 -0.99219,0.61129 0,0.63947 0.0772,0.68701 0.99219,0.61128 0.78842,-0.0652 0.99218,-0.19079 0.99218,-0.61128 z m -0.26458,-2.91042 c 0,-0.14552 -0.38695,-0.30189 -0.85989,-0.34749 -0.65172,-0.0628 -0.8599,0.0213 -0.8599,0.34749 0,0.3262 0.20818,0.41033 0.8599,0.34749 0.47294,-0.0456 0.85989,-0.20197 0.85989,-0.34749 z m -12.96551,-3.40387 c -0.93204,-1.42247 0.90724,-3.06035 2.0987,-1.8689 0.49203,0.49204 0.5478,1.72761 0.0983,2.17715 -0.54643,0.54643 -1.74737,0.37793 -2.19697,-0.30825 z m 5.84066,0.20997 c -0.64104,-0.64104 -0.51429,-1.62414 0.27617,-2.14207 0.62003,-0.40626 0.76441,-0.41285 1.38906,-0.0634 0.8477,0.47422 1.03387,1.42762 0.41279,2.11391 -0.55636,0.61477 -1.51267,0.65692 -2.07802,0.0916 z m -79.72463,-4.25493 c -0.26108,-0.10727 -0.330729,-5.08427 -0.330729,-23.633452 0,-21.182626 0.04123,-23.513383 0.418515,-23.65816 0.230183,-0.08833 3.197255,-0.160599 6.593493,-0.160599 h 6.174979 l 2.787338,7.077604 c 1.533036,3.892683 4.132136,10.493369 5.775778,14.668193 1.643642,4.174824 3.107502,7.569837 3.253023,7.544475 0.14552,-0.02536 2.780452,-6.447901 5.855403,-14.272307 3.074951,-7.824406 5.740367,-14.406386 5.923146,-14.626622 0.28327,-0.341319 1.293648,-0.389994 6.844597,-0.32974 l 6.512271,0.07069 V 89.171849 112.85206 H 91.85908 85.244497 l -0.07131,-5.75469 c -0.03922,-3.16508 -0.166528,-5.75469 -0.28291,-5.75469 -0.116382,0 -1.228013,2.58961 -2.470292,5.75469 l -2.258689,5.75469 -6.758437,0.0706 -6.758437,0.0706 -0.792953,-1.92265 c -0.436125,-1.05745 -1.478162,-3.67881 -2.315639,-5.82524 -0.837477,-2.14644 -1.621356,-3.90261 -1.741955,-3.90261 -0.120599,0 -0.251359,2.58961 -0.290577,5.75469 l -0.07131,5.75469 -6.217708,0.0477 c -3.41974,0.0262 -6.366537,-0.0134 -6.548438,-0.0882 z m 53.69905,-0.14285 c -0.47846,-0.47846 -0.45219,-12.47391 0.0282,-12.872591 0.19769,-0.164072 1.76633,-0.320644 3.63802,-0.363126 l 3.29047,-0.07469 -3.28438,-1.657129 c -1.80641,-0.911421 -3.44352,-1.789203 -3.63802,-1.950626 -0.50981,-0.423101 -0.51655,-12.72871 -0.007,-13.151426 0.19054,-0.158135 1.64905,-0.321542 3.24114,-0.363126 l 2.89471,-0.07561 -3.08183,-1.656996 c -1.69501,-0.911347 -3.15352,-1.843819 -3.24115,-2.07216 -0.2086,-0.543616 -0.20743,-12.109467 10e-4,-12.653371 0.14371,-0.374507 1.66834,-0.418515 14.49916,-0.418515 10.79945,0 14.41694,0.07837 14.65607,0.3175 0.20775,0.207747 0.3175,1.305278 0.3175,3.175 v 2.8575 l 2.84427,0.0041 c 1.56435,0.0022 2.99693,0.100917 3.18351,0.21931 0.25304,0.160566 0.32027,1.050261 0.26458,3.501677 l -0.0746,3.286419 -4.89479,0.132292 -4.89479,0.132292 0.92604,0.556316 c 0.50932,0.305973 1.96784,1.115881 3.24115,1.799794 l 2.3151,1.243477 v 6.415519 c 0,4.63707 -0.088,6.503533 -0.3175,6.733019 -0.17463,0.174625 -0.9783,0.322489 -1.78594,0.328588 l -1.46844,0.01109 3.43959,1.774849 3.43958,1.77485 v 6.614584 6.61458 l -17.60616,0.068 c -13.47399,0.052 -17.68112,-0.007 -17.92552,-0.25135 z m 32.14448,-43.666468 c -0.40858,-0.298758 -0.45823,-0.72662 -0.39237,-3.381527 l 0.0754,-3.039491 3.38141,-0.07411 3.3814,-0.07411 -0.0741,3.381401 -0.0741,3.381402 -2.91493,0.07424 c -2.06736,0.05265 -3.05094,-0.02522 -3.38269,-0.2678 z"
           id="path23" /><path
           style="fill:#f1a9cd"
           d="m 102.47072,125.00125 c -0.26991,-0.70338 -0.17845,-5.93291 0.11329,-6.47805 0.21358,-0.39907 0.55937,-0.51177 1.57028,-0.51177 2.5396,0 3.59735,0.99997 2.95035,2.7892 -0.27789,0.76851 -0.26478,1.00324 0.0839,1.50101 0.59378,0.84774 0.51011,1.72243 -0.23615,2.46869 -0.56472,0.56473 -0.88889,0.64944 -2.48524,0.64944 -1.42993,0 -1.87131,-0.0925 -1.9964,-0.41852 z m 4.00659,-0.82436 c 0.41941,-0.56528 0.41722,-0.91895 -0.009,-1.50223 -0.43504,-0.59495 -2.41992,-0.88417 -2.96475,-0.432 -0.48352,0.40129 -0.52675,1.88211 -0.0687,2.35272 0.45005,0.46237 2.60953,0.16535 3.04271,-0.41849 z m -0.46302,-3.25504 c 0.63704,-0.63704 0.6708,-1.14348 0.11339,-1.70089 -0.56719,-0.56719 -2.64527,-0.5652 -2.86321,0.003 -0.25877,0.67435 -0.18539,1.56752 0.1569,1.90982 0.50308,0.50307 2.0004,0.38084 2.59292,-0.21167 z m 3.96875,2.89043 c 0,-1.39699 -0.13859,-1.84477 -1.05833,-3.4196 -1.18432,-2.02783 -1.21278,-2.11666 -0.67798,-2.11666 0.2092,0 0.70438,0.59531 1.10039,1.32291 0.39601,0.72761 0.87768,1.32292 1.07039,1.32292 0.1927,0 0.65203,-0.59531 1.02074,-1.32292 0.63908,-1.26118 0.91133,-1.51401 1.25751,-1.16783 0.0853,0.0853 -0.3099,1.00803 -0.87822,2.05052 -0.85903,1.57575 -1.03394,2.15203 -1.03703,3.41679 -0.003,1.17427 -0.0943,1.52136 -0.4006,1.52136 -0.30922,0 -0.39687,-0.355 -0.39687,-1.60749 z m 7.81045,1.01217 c -0.0754,-0.32742 -0.16698,-1.60734 -0.20347,-2.84427 l -0.0664,-2.24896 -0.87506,-0.084 c -0.97116,-0.0933 -1.34173,-0.64002 -0.84193,-1.24224 0.24591,-0.29631 0.92311,-0.39251 2.74158,-0.38946 2.61085,0.004 3.1807,0.18355 3.03334,0.9537 -0.065,0.33948 -0.38831,0.53947 -1.01822,0.62975 l -0.92304,0.13229 -0.0751,2.84427 -0.0751,2.84428 h -0.77976 c -0.59162,0 -0.81284,-0.14364 -0.91689,-0.59532 z m 4.88955,-2.97152 v -3.56683 l 0.68097,-0.17091 c 1.23009,-0.30874 1.78946,0.20419 2.44611,2.24303 0.33418,1.0376 0.71293,1.88655 0.84167,1.88655 0.12874,0 0.50749,-0.84895 0.84167,-1.88655 0.65665,-2.03884 1.21602,-2.55177 2.44611,-2.24303 l 0.68097,0.17091 v 3.56683 3.56684 h -0.79375 c -0.79287,0 -0.79375,-0.002 -0.79375,-1.57189 0,-0.86454 -0.10847,-1.63892 -0.24103,-1.72085 -0.13257,-0.0819 -0.52465,0.59565 -0.87129,1.50574 -0.51911,1.3629 -0.74715,1.66856 -1.29315,1.73328 -0.59761,0.0708 -0.72305,-0.0918 -1.27375,-1.65173 -0.33596,-0.95167 -0.71714,-1.66461 -0.84706,-1.58432 -0.12992,0.0803 -0.23622,0.85334 -0.23622,1.71788 0,1.57015 -8.8e-4,1.57189 -0.79375,1.57189 h -0.79375 z m 9.26042,0.0263 v -3.59316 l 0.68506,-0.17194 c 1.13184,-0.28408 3.80043,0.0686 4.36157,0.57642 0.56612,0.51233 0.65931,1.45719 0.22394,2.27067 -0.22081,0.4126 -0.19077,0.63864 0.1323,0.99563 0.61092,0.67506 0.53535,2.21623 -0.1386,2.82657 -0.43874,0.39732 -1.05488,0.5236 -2.91042,0.5965 l -2.35385,0.0925 z m 3.98715,1.79854 c 0.56416,-0.67978 -0.025,-1.30074 -1.23424,-1.30074 -1.05369,0 -1.40688,0.44434 -1.0638,1.33837 0.19965,0.52029 1.85754,0.49314 2.29804,-0.0376 z m -0.1507,-3.41741 c 0,-0.4334 -0.2035,-0.54389 -1.12447,-0.61052 -1.05699,-0.0765 -1.12448,-0.0398 -1.12448,0.61052 0,0.65036 0.0675,0.687 1.12448,0.61053 0.92097,-0.0666 1.12447,-0.17713 1.12447,-0.61053 z m -12.77937,-3.36021 c -0.89807,-0.89807 0.15806,-2.39426 1.27,-1.79916 0.93389,0.4998 0.52967,2.11666 -0.52917,2.11666 -0.23283,0 -0.56621,-0.14287 -0.74083,-0.3175 z m 5.50618,-0.0759 c -0.45185,-0.54445 -0.12116,-1.65001 0.55803,-1.86558 0.38467,-0.12209 0.73025,-0.007 1.1053,0.36802 0.46498,0.46498 0.50034,0.6451 0.23916,1.21833 -0.34905,0.76608 -1.37364,0.91646 -1.90249,0.27923 z m -43.267418,-4.16598 c -0.06844,-0.18445 -0.154801,-3.13334 -0.191913,-6.55308 l -0.06748,-6.217706 -2.519517,6.349996 -2.519517,6.35 h -6.740899 -6.7409 l -2.165932,-5.42395 c -1.191263,-2.98318 -2.322357,-5.78115 -2.513542,-6.21771 -0.303754,-0.69361 -0.3643,-0.009 -0.479901,5.42396 l -0.132292,6.2177 -6.416146,0.0709 -6.416146,0.0708 V 89.176553 65.623932 h 6.441285 c 5.804747,0 6.481083,0.04576 6.844013,0.463021 0.221501,0.254662 2.964129,6.993401 6.094729,14.974977 3.1306,7.981576 5.76447,14.394697 5.853045,14.25138 0.08857,-0.143317 2.774571,-6.911822 5.96888,-15.041123 l 5.807836,-14.780546 h 6.564377 6.564378 v 23.680208 23.680211 l -6.554963,0.0708 c -5.102267,0.0551 -6.582539,-0.004 -6.679399,-0.26458 z m 17.232138,-0.35513 c -0.20997,-0.54718 -0.21063,-11.58242 -7.2e-4,-12.12943 0.13561,-0.353391 0.7429,-0.420674 3.90261,-0.432378 l 3.742,-0.01386 -3.62665,-1.834379 c -1.99466,-1.008909 -3.75084,-2.066407 -3.90261,-2.349996 -0.43339,-0.809793 -0.36907,-12.314576 0.0709,-12.679708 0.19144,-0.15888 1.69142,-0.321574 3.34788,-0.363126 l 3.00105,-0.07528 -2.88486,-1.555947 c -1.58668,-0.85577 -3.09058,-1.80827 -3.342,-2.116666 -0.40209,-0.493194 -0.45785,-1.267069 -0.46302,-6.42606 -0.003,-3.225937 0.0664,-6.053671 0.15471,-6.283854 0.14369,-0.374453 1.65886,-0.418515 14.39149,-0.418515 12.73263,0 14.24779,0.04406 14.39148,0.418515 0.0883,0.230183 0.1606,1.658933 0.1606,3.175 v 2.756485 l 2.84427,0.0041 c 1.56435,0.0022 2.99719,0.101079 3.18409,0.219667 0.25184,0.159798 0.32033,0.997817 0.26458,3.237095 l -0.0752,3.021478 -5.09813,0.132292 -5.09812,0.132291 2.97586,1.5875 c 1.63673,0.873125 3.18674,1.79586 3.44448,2.050521 0.42196,0.416925 0.46862,1.081095 0.46862,6.67142 0,7.098749 0.12701,6.744899 -2.43001,6.76998 l -1.40645,0.0138 3.32079,1.681604 c 1.82644,0.924883 3.46574,1.856248 3.64289,2.0697 0.23782,0.286548 0.30351,2.040981 0.25108,6.705121 l -0.071,6.31702 -17.49962,0.068 c -15.78605,0.0614 -17.51541,0.0269 -17.66094,-0.35237 z m 32.03794,-43.300888 c -0.40858,-0.298758 -0.45823,-0.72662 -0.39237,-3.381527 l 0.0754,-3.039491 3.38141,-0.07411 3.3814,-0.07411 -0.0741,3.381401 -0.0741,3.381402 -2.91493,0.07424 c -2.06736,0.05265 -3.05094,-0.02522 -3.38269,-0.2678 z"
           id="path22" /><path
           style="fill:#e75da1"
           d="m 102.47072,125.00125 c -0.26991,-0.70338 -0.17845,-5.93291 0.11329,-6.47805 0.21358,-0.39907 0.55937,-0.51177 1.57028,-0.51177 2.5396,0 3.59735,0.99997 2.95035,2.7892 -0.27789,0.76851 -0.26478,1.00324 0.0839,1.50101 0.59378,0.84774 0.51011,1.72243 -0.23615,2.46869 -0.56472,0.56473 -0.88889,0.64944 -2.48524,0.64944 -1.42993,0 -1.87131,-0.0925 -1.9964,-0.41852 z m 4.00659,-0.82436 c 0.41941,-0.56528 0.41722,-0.91895 -0.009,-1.50223 -0.43504,-0.59495 -2.41992,-0.88417 -2.96475,-0.432 -0.48352,0.40129 -0.52675,1.88211 -0.0687,2.35272 0.45005,0.46237 2.60953,0.16535 3.04271,-0.41849 z m -0.46302,-3.25504 c 0.63704,-0.63704 0.6708,-1.14348 0.11339,-1.70089 -0.56719,-0.56719 -2.64527,-0.5652 -2.86321,0.003 -0.25877,0.67435 -0.18539,1.56752 0.1569,1.90982 0.50308,0.50307 2.0004,0.38084 2.59292,-0.21167 z m 3.96875,2.89043 c 0,-1.39699 -0.13859,-1.84477 -1.05833,-3.4196 -1.18432,-2.02783 -1.21278,-2.11666 -0.67798,-2.11666 0.2092,0 0.70438,0.59531 1.10039,1.32291 0.39601,0.72761 0.87768,1.32292 1.07039,1.32292 0.1927,0 0.65203,-0.59531 1.02074,-1.32292 0.63908,-1.26118 0.91133,-1.51401 1.25751,-1.16783 0.0853,0.0853 -0.3099,1.00803 -0.87822,2.05052 -0.85903,1.57575 -1.03394,2.15203 -1.03703,3.41679 -0.003,1.17427 -0.0943,1.52136 -0.4006,1.52136 -0.30922,0 -0.39687,-0.355 -0.39687,-1.60749 z m 7.81045,1.01217 c -0.0754,-0.32742 -0.16698,-1.60734 -0.20347,-2.84427 l -0.0664,-2.24896 -0.87506,-0.084 c -0.97116,-0.0933 -1.34173,-0.64002 -0.84193,-1.24224 0.24591,-0.29631 0.92311,-0.39251 2.74158,-0.38946 2.61085,0.004 3.1807,0.18355 3.03334,0.9537 -0.065,0.33948 -0.38831,0.53947 -1.01822,0.62975 l -0.92304,0.13229 -0.0751,2.84427 -0.0751,2.84428 h -0.77976 c -0.59162,0 -0.81284,-0.14364 -0.91689,-0.59532 z m 4.88955,-2.97152 v -3.56683 l 0.68097,-0.17091 c 1.23009,-0.30874 1.78946,0.20419 2.44611,2.24303 0.33418,1.0376 0.71293,1.88655 0.84167,1.88655 0.12874,0 0.50749,-0.84895 0.84167,-1.88655 0.65665,-2.03884 1.21602,-2.55177 2.44611,-2.24303 l 0.68097,0.17091 v 3.56683 3.56684 h -0.79375 c -0.79287,0 -0.79375,-0.002 -0.79375,-1.57189 0,-0.86454 -0.10847,-1.63892 -0.24103,-1.72085 -0.13257,-0.0819 -0.52465,0.59565 -0.87129,1.50574 -0.51911,1.3629 -0.74715,1.66856 -1.29315,1.73328 -0.59761,0.0708 -0.72305,-0.0918 -1.27375,-1.65173 -0.33596,-0.95167 -0.71714,-1.66461 -0.84706,-1.58432 -0.12992,0.0803 -0.23622,0.85334 -0.23622,1.71788 0,1.57015 -8.8e-4,1.57189 -0.79375,1.57189 h -0.79375 z m 9.26042,0.0263 v -3.59316 l 0.68506,-0.17194 c 1.13184,-0.28408 3.80043,0.0686 4.36157,0.57642 0.56612,0.51233 0.65931,1.45719 0.22394,2.27067 -0.22081,0.4126 -0.19077,0.63864 0.1323,0.99563 0.61092,0.67506 0.53535,2.21623 -0.1386,2.82657 -0.43874,0.39732 -1.05488,0.5236 -2.91042,0.5965 l -2.35385,0.0925 z m 3.98715,1.79854 c 0.56416,-0.67978 -0.025,-1.30074 -1.23424,-1.30074 -1.05369,0 -1.40688,0.44434 -1.0638,1.33837 0.19965,0.52029 1.85754,0.49314 2.29804,-0.0376 z m -0.1507,-3.41741 c 0,-0.4334 -0.2035,-0.54389 -1.12447,-0.61052 -1.05699,-0.0765 -1.12448,-0.0398 -1.12448,0.61052 0,0.65036 0.0675,0.687 1.12448,0.61053 0.92097,-0.0666 1.12447,-0.17713 1.12447,-0.61053 z m -12.77937,-3.36021 c -0.89807,-0.89807 0.15806,-2.39426 1.27,-1.79916 0.93389,0.4998 0.52967,2.11666 -0.52917,2.11666 -0.23283,0 -0.56621,-0.14287 -0.74083,-0.3175 z m 5.50618,-0.0759 c -0.45185,-0.54445 -0.12116,-1.65001 0.55803,-1.86558 0.38467,-0.12209 0.73025,-0.007 1.1053,0.36802 0.46498,0.46498 0.50034,0.6451 0.23916,1.21833 -0.34905,0.76608 -1.37364,0.91646 -1.90249,0.27923 z M 48.335121,89.171931 V 65.614688 l 6.51505,0.07077 6.51505,0.07077 5.849772,14.884295 c 3.217375,8.186363 5.970837,14.844464 6.118805,14.79578 0.147968,-0.04868 2.828876,-6.583145 5.957574,-14.521025 3.128698,-7.93788 5.853705,-14.627863 6.055571,-14.866628 0.324392,-0.383689 1.092788,-0.425889 6.614583,-0.363271 l 6.247554,0.07085 v 23.415625 23.415616 h -6.35 -6.35 l -0.07093,-6.28385 c -0.03901,-3.45612 -0.17586,-6.28385 -0.304101,-6.28385 -0.128241,0 -1.349166,2.82773 -2.713166,6.28385 l -2.48,6.28385 h -6.598178 -6.598178 l -2.441189,-6.2177 c -1.342654,-3.41974 -2.537973,-6.21771 -2.656263,-6.21771 -0.118291,0 -0.274606,2.79797 -0.347366,6.21771 l -0.132292,6.2177 -6.416146,0.0709 -6.416146,0.0708 z m 54.136319,23.131199 c -0.20997,-0.54718 -0.21063,-11.58242 -7.2e-4,-12.12943 0.13578,-0.353844 0.72863,-0.418518 3.83646,-0.418518 2.3119,0 3.67586,-0.09971 3.67586,-0.268719 0,-0.147795 -1.63229,-1.044329 -3.6273,-1.992297 -1.99502,-0.947967 -3.7196,-1.868841 -3.83241,-2.046385 -0.11281,-0.177544 -0.20693,-3.0169 -0.20916,-6.309681 -0.003,-4.625196 0.075,-6.052478 0.3435,-6.275315 0.1977,-0.164071 1.76633,-0.320643 3.63802,-0.363126 l 3.29047,-0.07468 L 106.67575,80.86 c -1.60073,-0.860735 -3.23784,-1.791577 -3.63802,-2.068537 l -0.72761,-0.503564 V 72.37443 c 0,-3.252407 0.0723,-6.1018 0.1606,-6.331983 0.14369,-0.374453 1.65886,-0.418515 14.39149,-0.418515 12.73263,0 14.24779,0.04406 14.39148,0.418515 0.0883,0.230183 0.1606,1.658933 0.1606,3.175 v 2.756485 l 2.84427,0.0041 c 1.56435,0.0022 2.99719,0.101079 3.18409,0.219667 0.25184,0.159798 0.32033,0.997817 0.26458,3.237095 l -0.0752,3.021478 -5.11335,0.07193 c -3.27628,0.04609 -5.08152,0.167438 -5.02474,0.337768 0.0487,0.14621 1.57584,1.074582 3.39356,2.063047 l 3.30494,1.79721 0.0711,6.181175 c 0.0473,4.113928 -0.0232,6.275757 -0.21084,6.463981 -0.15509,0.155544 -1.1396,0.348352 -2.18781,0.428464 l -1.90582,0.145656 3.90731,1.905786 3.9073,1.905786 -0.0708,6.415225 -0.0709,6.41522 -17.49962,0.068 c -15.78605,0.0614 -17.51541,0.0269 -17.66094,-0.35237 z M 134.4734,68.349386 c -0.0949,-0.247251 -0.15292,-1.676001 -0.12897,-3.175 l 0.0435,-2.725454 h 3.27567 3.27566 v 3.175 3.175 h -3.14669 c -2.71685,0 -3.17026,-0.06141 -3.3192,-0.449546 z"
           id="path21" /><path
           style="fill:#979fa5"
           d="m 102.47072,125.00125 c -0.26991,-0.70338 -0.17845,-5.93291 0.11329,-6.47805 0.21358,-0.39907 0.55937,-0.51177 1.57028,-0.51177 2.5396,0 3.59735,0.99997 2.95035,2.7892 -0.27789,0.76851 -0.26478,1.00324 0.0839,1.50101 0.59378,0.84774 0.51011,1.72243 -0.23615,2.46869 -0.56472,0.56473 -0.88889,0.64944 -2.48524,0.64944 -1.42993,0 -1.87131,-0.0925 -1.9964,-0.41852 z m 4.00659,-0.82436 c 0.41941,-0.56528 0.41722,-0.91895 -0.009,-1.50223 -0.43504,-0.59495 -2.41992,-0.88417 -2.96475,-0.432 -0.48352,0.40129 -0.52675,1.88211 -0.0687,2.35272 0.45005,0.46237 2.60953,0.16535 3.04271,-0.41849 z m -0.46302,-3.25504 c 0.63704,-0.63704 0.6708,-1.14348 0.11339,-1.70089 -0.56719,-0.56719 -2.64527,-0.5652 -2.86321,0.003 -0.25877,0.67435 -0.18539,1.56752 0.1569,1.90982 0.50308,0.50307 2.0004,0.38084 2.59292,-0.21167 z m 3.96875,2.89043 c 0,-1.39699 -0.13859,-1.84477 -1.05833,-3.4196 -1.18432,-2.02783 -1.21278,-2.11666 -0.67798,-2.11666 0.2092,0 0.70438,0.59531 1.10039,1.32291 0.39601,0.72761 0.87768,1.32292 1.07039,1.32292 0.1927,0 0.65203,-0.59531 1.02074,-1.32292 0.63908,-1.26118 0.91133,-1.51401 1.25751,-1.16783 0.0853,0.0853 -0.3099,1.00803 -0.87822,2.05052 -0.85903,1.57575 -1.03394,2.15203 -1.03703,3.41679 -0.003,1.17427 -0.0943,1.52136 -0.4006,1.52136 -0.30922,0 -0.39687,-0.355 -0.39687,-1.60749 z m 7.81045,1.01217 c -0.0754,-0.32742 -0.16698,-1.60734 -0.20347,-2.84427 l -0.0664,-2.24896 -0.87506,-0.084 c -0.97116,-0.0933 -1.34173,-0.64002 -0.84193,-1.24224 0.24591,-0.29631 0.92311,-0.39251 2.74158,-0.38946 2.61085,0.004 3.1807,0.18355 3.03334,0.9537 -0.065,0.33948 -0.38831,0.53947 -1.01822,0.62975 l -0.92304,0.13229 -0.0751,2.84427 -0.0751,2.84428 h -0.77976 c -0.59162,0 -0.81284,-0.14364 -0.91689,-0.59532 z m 4.88955,-2.97152 v -3.56683 l 0.68097,-0.17091 c 1.23009,-0.30874 1.78946,0.20419 2.44611,2.24303 0.33418,1.0376 0.71293,1.88655 0.84167,1.88655 0.12874,0 0.50749,-0.84895 0.84167,-1.88655 0.65665,-2.03884 1.21602,-2.55177 2.44611,-2.24303 l 0.68097,0.17091 v 3.56683 3.56684 h -0.79375 c -0.79287,0 -0.79375,-0.002 -0.79375,-1.57189 0,-0.86454 -0.10847,-1.63892 -0.24103,-1.72085 -0.13257,-0.0819 -0.52465,0.59565 -0.87129,1.50574 -0.51911,1.3629 -0.74715,1.66856 -1.29315,1.73328 -0.59761,0.0708 -0.72305,-0.0918 -1.27375,-1.65173 -0.33596,-0.95167 -0.71714,-1.66461 -0.84706,-1.58432 -0.12992,0.0803 -0.23622,0.85334 -0.23622,1.71788 0,1.57015 -8.8e-4,1.57189 -0.79375,1.57189 h -0.79375 z m 9.26042,0.0263 v -3.59316 l 0.68506,-0.17194 c 1.13184,-0.28408 3.80043,0.0686 4.36157,0.57642 0.56612,0.51233 0.65931,1.45719 0.22394,2.27067 -0.22081,0.4126 -0.19077,0.63864 0.1323,0.99563 0.61092,0.67506 0.53535,2.21623 -0.1386,2.82657 -0.43874,0.39732 -1.05488,0.5236 -2.91042,0.5965 l -2.35385,0.0925 z m 3.98715,1.79854 c 0.56416,-0.67978 -0.025,-1.30074 -1.23424,-1.30074 -1.05369,0 -1.40688,0.44434 -1.0638,1.33837 0.19965,0.52029 1.85754,0.49314 2.29804,-0.0376 z m -0.1507,-3.41741 c 0,-0.4334 -0.2035,-0.54389 -1.12447,-0.61052 -1.05699,-0.0765 -1.12448,-0.0398 -1.12448,0.61052 0,0.65036 0.0675,0.687 1.12448,0.61053 0.92097,-0.0666 1.12447,-0.17713 1.12447,-0.61053 z m -12.77937,-3.36021 c -0.89807,-0.89807 0.15806,-2.39426 1.27,-1.79916 0.93389,0.4998 0.52967,2.11666 -0.52917,2.11666 -0.23283,0 -0.56621,-0.14287 -0.74083,-0.3175 z m 5.50618,-0.0759 c -0.45185,-0.54445 -0.12116,-1.65001 0.55803,-1.86558 0.38467,-0.12209 0.73025,-0.007 1.1053,0.36802 0.46498,0.46498 0.50034,0.6451 0.23916,1.21833 -0.34905,0.76608 -1.37364,0.91646 -1.90249,0.27923 z M 48.335121,89.167227 V 65.614688 l 6.548438,0.07077 c 5.693508,0.06153 6.549045,0.124084 6.553095,0.479151 0.0026,0.224611 2.612085,7.039 5.798941,15.143087 5.148034,13.091307 5.833454,14.678779 6.145486,14.233292 0.193161,-0.275776 2.871031,-6.911571 5.950823,-14.746212 3.079791,-7.83464 5.789102,-14.389841 6.02069,-14.567114 0.302368,-0.231453 2.155225,-0.324687 6.572632,-0.33073 l 6.151563,-0.0084 V 89.171849 112.45518 H 91.85908 85.641372 l -0.0041,-6.28385 c -0.0022,-3.45612 -0.09692,-6.430044 -0.210426,-6.608718 -0.125404,-0.197402 -1.242988,2.294018 -2.848441,6.349998 l -2.642067,6.67486 -6.589041,0.0709 c -3.623973,0.039 -6.508572,-0.01 -6.41022,-0.10795 0.09835,-0.0983 0.07704,-0.30884 -0.04736,-0.46775 -0.124399,-0.15891 -1.270668,-2.96783 -2.547265,-6.24205 -1.276597,-3.27422 -2.468311,-6.112308 -2.648254,-6.306864 -0.260651,-0.281819 -0.337109,0.979004 -0.376061,6.201434 -0.02689,3.60534 -0.108608,6.65179 -0.181594,6.76988 -0.07299,0.11809 -2.983175,0.21472 -6.467087,0.21472 h -6.334385 z m 54.136319,23.135903 c -0.23371,-0.60905 -0.19066,-11.8276 0.0468,-12.2011 0.13767,-0.216518 1.4541,-0.331031 4.2223,-0.367287 2.21225,-0.02897 3.96207,-0.150083 3.88849,-0.269131 -0.17848,-0.28879 -7.24293,-3.67918 -7.66619,-3.67918 -0.58298,0 -0.65274,-0.719915 -0.65274,-6.736117 0,-4.554156 0.0794,-5.964969 0.34818,-6.18805 0.20231,-0.167901 1.82899,-0.320033 3.88275,-0.363126 l 3.53457,-0.07416 -3.38878,-1.852083 c -1.86382,-1.018646 -3.46223,-1.853907 -3.55202,-1.856135 -0.75293,-0.01869 -0.8247,-0.570413 -0.8247,-6.339924 0,-3.253729 0.0723,-6.104202 0.1606,-6.334385 0.14369,-0.374453 1.65886,-0.418515 14.39149,-0.418515 12.73263,0 14.24779,0.04406 14.39148,0.418515 0.0883,0.230183 0.1606,1.658933 0.1606,3.175 v 2.756485 h 2.75648 c 1.51607,0 2.94482,0.07227 3.175,0.1606 0.34757,0.133374 0.41852,0.66896 0.41852,3.159385 0,1.649332 -0.1008,3.061085 -0.22401,3.137229 -0.1232,0.07614 -2.56398,0.151936 -5.42396,0.168427 -2.85997,0.01649 -5.19995,0.120249 -5.19995,0.230572 0,0.207627 5.52585,3.262888 6.72807,3.719969 l 0.68027,0.258638 v 6.208642 c 0,4.676363 -0.0816,6.26147 -0.33073,6.422694 -0.1819,0.117729 -1.28323,0.278525 -2.4474,0.357325 l -2.11667,0.143272 3.70417,1.820846 c 2.03729,1.001466 3.88276,1.829962 4.10104,1.841103 0.34143,0.01743 0.39688,0.925901 0.39688,6.502541 v 6.48229 l -17.49962,0.068 c -15.78605,0.0614 -17.51541,0.0269 -17.66094,-0.35236 z m 32.43543,-43.723736 c -0.25277,-0.165253 -0.33226,-1.007218 -0.30003,-3.177642 l 0.0438,-2.95282 h 3.1443 3.1443 v 3.144298 3.144298 l -2.84427,0.03334 c -1.56435,0.01834 -2.99902,-0.06783 -3.18815,-0.191479 z"
           id="path20" /><path
           style="fill:#e22b85"
           d="m 102.71016,124.95674 c 0.0487,-0.25466 0.0978,-0.51554 0.10889,-0.57973 0.0111,-0.0642 0.17301,0.0922 0.35973,0.34757 0.26053,0.35629 0.63897,0.44498 1.62702,0.3813 1.04092,-0.0671 1.39012,-0.22089 1.82313,-0.80295 0.45711,-0.61446 0.48916,-0.82188 0.21869,-1.4155 -0.1743,-0.38254 -0.55217,-0.75706 -0.8397,-0.83225 -0.62964,-0.16466 -0.6773,-0.48826 -0.10428,-0.70815 0.59952,-0.23006 0.63889,-0.21169 0.64823,0.30242 0.005,0.25466 0.18322,0.69414 0.39688,0.97661 0.57188,0.7561 0.47618,1.41475 -0.31164,2.14488 -0.58826,0.54518 -0.9649,0.64883 -2.35784,0.64883 -1.43618,0 -1.6459,-0.0619 -1.56911,-0.46303 z m 7.48785,0.28229 c 0.191,-0.0764 0.4192,-0.067 0.50712,0.0209 0.0879,0.0879 -0.0683,0.15046 -0.34726,0.13897 -0.30823,-0.0127 -0.37092,-0.0754 -0.15986,-0.15985 z m 7.72253,-2.70137 c 0,-3.10279 -0.047,-3.20331 -1.49625,-3.20331 -0.48521,0 -0.63582,-0.12222 -0.57057,-0.46302 0.0764,-0.39898 0.46334,-0.47345 2.79753,-0.53842 2.57271,-0.0716 2.70887,-0.0483 2.70887,0.46302 0,0.41331 -0.17214,0.53842 -0.74083,0.53842 -1.2149,0 -1.37583,0.39304 -1.37583,3.36021 v 2.72521 h -0.66146 -0.66146 z m 4.78837,-0.35904 c -0.0168,-1.78263 0.0723,-3.39881 0.19796,-3.5915 0.13515,-0.2072 0.58277,-0.31531 1.09546,-0.26459 0.81473,0.0806 0.90904,0.20088 1.56613,1.99715 0.38456,1.05125 0.84125,2.05343 1.01488,2.22705 0.3633,0.36331 0.31772,0.45047 1.19561,-2.28634 0.58597,-1.82675 0.60676,-1.85208 1.51941,-1.85208 h 0.9253 l 0.1323,3.50627 0.13229,3.50628 -0.72761,-5.5e-4 c -0.40018,-3e-4 -0.7135,-0.0898 -0.69627,-0.19898 0.0172,-0.10914 0.0172,-1.08716 0,-2.17336 -0.0268,-1.6914 -0.0838,-1.91931 -0.39681,-1.5875 -0.20101,0.21308 -0.62744,1.19109 -0.94761,2.17336 -0.43855,1.34543 -0.70202,1.78594 -1.06816,1.78594 -0.36615,0 -0.62961,-0.44051 -1.06816,-1.78594 -0.32017,-0.98227 -0.7466,-1.96028 -0.94761,-2.17336 -0.31301,-0.33181 -0.36998,-0.1039 -0.39681,1.5875 -0.0172,1.0862 -0.0172,2.06422 0,2.17336 0.0172,0.10914 -0.31316,0.19844 -0.7342,0.19844 h -0.76552 z m 9.25215,0.1175 c -0.0222,-1.718 0.037,-3.32534 0.13159,-3.57187 0.13799,-0.35961 0.51954,-0.44746 1.92963,-0.44433 0.9667,0.002 2.05529,0.15373 2.41909,0.33686 0.75268,0.37887 0.99285,1.43867 0.52439,2.31399 -0.23637,0.44168 -0.21991,0.66008 0.0758,1.00528 0.58624,0.68442 0.73019,1.31306 0.46212,2.01813 -0.37461,0.98531 -1.57597,1.46559 -3.66597,1.46559 h -1.83621 z m 3.89227,1.65343 c 0.32343,-0.22653 0.58804,-0.57696 0.58804,-0.77874 0,-0.5181 -1.04951,-1.19063 -1.85804,-1.19063 -0.82643,0 -1.31696,0.44347 -1.31696,1.19063 0,1.16497 1.42368,1.59354 2.58696,0.77874 z m 0.0393,-3.25573 c 0.44034,-0.8228 -0.20946,-1.41348 -1.444,-1.31261 -1.06496,0.087 -1.41611,0.54966 -1.08067,1.4238 0.22752,0.5929 2.19421,0.50628 2.52467,-0.11119 z m -25.60883,2.97988 c -0.0262,-0.9769 -0.29549,-1.85299 -0.97589,-3.175 -0.89637,-1.74162 -0.74737,-1.83547 0.19978,-0.12583 0.28147,0.50806 0.65991,0.81356 1.0078,0.81356 0.35986,0 0.48895,0.11025 0.36463,0.31141 -0.10585,0.17127 -0.27518,1.03447 -0.37629,1.91823 l -0.18383,1.60682 z m -7.54863,-1.35664 c -0.23223,-0.23223 -0.19712,-1.07676 0.0511,-1.23019 0.1164,-0.0719 0.33817,0.0718 0.49283,0.31948 0.20498,0.32823 0.19112,0.53443 -0.0511,0.76073 -0.18279,0.17076 -0.40456,0.23824 -0.49283,0.14998 z m 8.83535,-2.45354 c 0.29696,-0.58209 0.59945,-1.05834 0.67221,-1.05834 0.0728,0 -0.11067,0.47625 -0.40763,1.05834 -0.29695,0.58208 -0.59945,1.05833 -0.67221,1.05833 -0.0728,0 0.11067,-0.47625 0.40763,-1.05833 z m -5.04695,-0.4015 c -0.32139,-0.6704 -0.336,-0.83831 -0.0639,-0.73388 0.33306,0.12781 0.7893,1.3217 0.57852,1.51389 -0.0539,0.0491 -0.28545,-0.30189 -0.51466,-0.78001 z M 102.7351,118.695 c 0.0884,-0.23044 0.27703,-0.41898 0.41911,-0.41898 0.34776,0 0.13,0.60134 -0.26551,0.73317 -0.19335,0.0644 -0.25248,-0.0565 -0.1536,-0.31419 z m 20.22654,-2.12186 c -0.42385,-0.51071 0.0854,-1.47212 0.77971,-1.47212 0.69435,0 1.20357,0.96141 0.77972,1.47212 -0.17344,0.20898 -0.52431,0.37996 -0.77972,0.37996 -0.2554,0 -0.60627,-0.17098 -0.77971,-0.37996 z m 5.62409,-0.0529 c -0.21887,-0.57038 0.25115,-1.28695 0.84416,-1.28695 0.25933,0 0.59272,0.19217 0.74088,0.42706 0.40421,0.6408 0.0306,1.29273 -0.74088,1.29273 -0.38368,0 -0.75017,-0.18791 -0.84416,-0.43284 z M 48.334867,89.077396 c 2.31e-4,-21.329349 0.03907,-23.495182 0.418769,-23.349479 0.230183,0.08833 3.117914,0.160599 6.417181,0.160599 h 5.998666 l 5.934776,15.087021 c 3.284171,8.348815 6.060678,15.046071 6.216674,14.995332 0.155043,-0.05043 2.848172,-6.60996 5.98473,-14.576734 3.136559,-7.966775 5.846239,-14.714674 6.021513,-14.995332 0.300058,-0.480469 0.681878,-0.510287 6.534146,-0.510287 h 6.215467 V 89.171849 112.45518 H 91.85908 85.641372 l -0.0041,-6.28385 c -0.004,-6.1535 -0.165215,-7.58449 -0.734469,-6.518039 -0.146429,0.274322 -1.358109,3.266969 -2.692623,6.650329 l -2.426389,6.15156 h -6.299253 c -4.723883,0 -6.364495,-0.0827 -6.560126,-0.33073 -0.14348,-0.1819 -1.305361,-3.00963 -2.581958,-6.28385 -1.276597,-3.27422 -2.48347,-6.127467 -2.681941,-6.340552 -0.3055,-0.327993 -0.361478,0.585242 -0.364908,5.953122 -0.0022,3.48731 -0.09466,6.48308 -0.205401,6.65729 -0.144643,0.22752 -1.969219,0.3393 -6.478495,0.39687 l -6.277145,0.0801 z m 54.358503,23.040794 c -0.0711,-0.18534 -0.0972,-2.95354 -0.0579,-6.15156 l 0.0715,-5.81457 3.8813,-0.13229 c 2.13471,-0.07276 3.96654,-0.217875 4.07073,-0.322472 0.21469,-0.215536 -0.0652,-0.375759 -4.64474,-2.65889 L 102.707,95.389557 v -6.217708 -6.217708 l 3.43471,-0.07451 c 1.8891,-0.04098 3.52827,-0.168059 3.64261,-0.282399 0.11434,-0.11434 -1.43128,-1.110157 -3.43472,-2.212927 l -3.6426,-2.005036 -0.0709,-6.247678 -0.0709,-6.247678 14.22615,0.06845 14.22614,0.06845 0.1323,3.042709 0.13229,3.042708 3.04271,0.132292 3.0427,0.132291 0.0748,2.976563 0.0748,2.976562 -4.96961,0.0041 c -4.89171,0.004 -6.24035,0.203253 -5.36647,0.792909 0.21828,0.147287 1.85752,1.048032 3.64276,2.001656 l 3.2459,1.733863 -0.0709,6.266573 -0.0709,6.266572 -2.18281,0.07685 c -1.24233,0.04374 -2.18281,0.19197 -2.18281,0.344044 0,0.146959 1.78593,1.123887 3.96875,2.170951 l 3.96875,1.903753 v 6.285021 6.28501 h -17.33852 c -13.79849,0 -17.36491,-0.0688 -17.46782,-0.33699 z m 32.2135,-43.538796 c -0.25277,-0.165253 -0.33226,-1.007218 -0.30003,-3.177642 l 0.0438,-2.95282 h 3.1443 3.1443 v 3.144298 3.144298 l -2.84427,0.03334 c -1.56435,0.01834 -2.99902,-0.06783 -3.18815,-0.191479 z"
           id="path19" /><path
           style="fill:#78848c"
           d="m 102.71016,124.95674 c 0.0487,-0.25466 0.0978,-0.51554 0.10889,-0.57973 0.0111,-0.0642 0.17301,0.0922 0.35973,0.34757 0.26053,0.35629 0.63897,0.44498 1.62702,0.3813 1.04092,-0.0671 1.39012,-0.22089 1.82313,-0.80295 0.45711,-0.61446 0.48916,-0.82188 0.21869,-1.4155 -0.1743,-0.38254 -0.55217,-0.75706 -0.8397,-0.83225 -0.62964,-0.16466 -0.6773,-0.48826 -0.10428,-0.70815 0.59952,-0.23006 0.63889,-0.21169 0.64823,0.30242 0.005,0.25466 0.18322,0.69414 0.39688,0.97661 0.57188,0.7561 0.47618,1.41475 -0.31164,2.14488 -0.58826,0.54518 -0.9649,0.64883 -2.35784,0.64883 -1.43618,0 -1.6459,-0.0619 -1.56911,-0.46303 z m 7.48785,0.28229 c 0.191,-0.0764 0.4192,-0.067 0.50712,0.0209 0.0879,0.0879 -0.0683,0.15046 -0.34726,0.13897 -0.30823,-0.0127 -0.37092,-0.0754 -0.15986,-0.15985 z m 7.72253,-2.70137 c 0,-3.10279 -0.047,-3.20331 -1.49625,-3.20331 -0.48521,0 -0.63582,-0.12222 -0.57057,-0.46302 0.0764,-0.39898 0.46334,-0.47345 2.79753,-0.53842 2.57271,-0.0716 2.70887,-0.0483 2.70887,0.46302 0,0.41331 -0.17214,0.53842 -0.74083,0.53842 -1.2149,0 -1.37583,0.39304 -1.37583,3.36021 v 2.72521 h -0.66146 -0.66146 z m 4.78837,-0.35904 c -0.0168,-1.78263 0.0723,-3.39881 0.19796,-3.5915 0.13515,-0.2072 0.58277,-0.31531 1.09546,-0.26459 0.81473,0.0806 0.90904,0.20088 1.56613,1.99715 0.38456,1.05125 0.84125,2.05343 1.01488,2.22705 0.3633,0.36331 0.31772,0.45047 1.19561,-2.28634 0.58597,-1.82675 0.60676,-1.85208 1.51941,-1.85208 h 0.9253 l 0.1323,3.50627 0.13229,3.50628 -0.72761,-5.5e-4 c -0.40018,-3e-4 -0.7135,-0.0898 -0.69627,-0.19898 0.0172,-0.10914 0.0172,-1.08716 0,-2.17336 -0.0268,-1.6914 -0.0838,-1.91931 -0.39681,-1.5875 -0.20101,0.21308 -0.62744,1.19109 -0.94761,2.17336 -0.43855,1.34543 -0.70202,1.78594 -1.06816,1.78594 -0.36615,0 -0.62961,-0.44051 -1.06816,-1.78594 -0.32017,-0.98227 -0.7466,-1.96028 -0.94761,-2.17336 -0.31301,-0.33181 -0.36998,-0.1039 -0.39681,1.5875 -0.0172,1.0862 -0.0172,2.06422 0,2.17336 0.0172,0.10914 -0.31316,0.19844 -0.7342,0.19844 h -0.76552 z m 9.25215,0.1175 c -0.0222,-1.718 0.037,-3.32534 0.13159,-3.57187 0.13799,-0.35961 0.51954,-0.44746 1.92963,-0.44433 0.9667,0.002 2.05529,0.15373 2.41909,0.33686 0.75268,0.37887 0.99285,1.43867 0.52439,2.31399 -0.23637,0.44168 -0.21991,0.66008 0.0758,1.00528 0.58624,0.68442 0.73019,1.31306 0.46212,2.01813 -0.37461,0.98531 -1.57597,1.46559 -3.66597,1.46559 h -1.83621 z m 3.89227,1.65343 c 0.32343,-0.22653 0.58804,-0.57696 0.58804,-0.77874 0,-0.5181 -1.04951,-1.19063 -1.85804,-1.19063 -0.82643,0 -1.31696,0.44347 -1.31696,1.19063 0,1.16497 1.42368,1.59354 2.58696,0.77874 z m 0.0393,-3.25573 c 0.44034,-0.8228 -0.20946,-1.41348 -1.444,-1.31261 -1.06496,0.087 -1.41611,0.54966 -1.08067,1.4238 0.22752,0.5929 2.19421,0.50628 2.52467,-0.11119 z m -25.60883,2.97988 c -0.0262,-0.9769 -0.29549,-1.85299 -0.97589,-3.175 -0.89637,-1.74162 -0.74737,-1.83547 0.19978,-0.12583 0.28147,0.50806 0.65991,0.81356 1.0078,0.81356 0.35986,0 0.48895,0.11025 0.36463,0.31141 -0.10585,0.17127 -0.27518,1.03447 -0.37629,1.91823 l -0.18383,1.60682 z m -7.54863,-1.35664 c -0.23223,-0.23223 -0.19712,-1.07676 0.0511,-1.23019 0.1164,-0.0719 0.33817,0.0718 0.49283,0.31948 0.20498,0.32823 0.19112,0.53443 -0.0511,0.76073 -0.18279,0.17076 -0.40456,0.23824 -0.49283,0.14998 z m 8.83535,-2.45354 c 0.29696,-0.58209 0.59945,-1.05834 0.67221,-1.05834 0.0728,0 -0.11067,0.47625 -0.40763,1.05834 -0.29695,0.58208 -0.59945,1.05833 -0.67221,1.05833 -0.0728,0 0.11067,-0.47625 0.40763,-1.05833 z m -5.04695,-0.4015 c -0.32139,-0.6704 -0.336,-0.83831 -0.0639,-0.73388 0.33306,0.12781 0.7893,1.3217 0.57852,1.51389 -0.0539,0.0491 -0.28545,-0.30189 -0.51466,-0.78001 z M 102.7351,118.695 c 0.0884,-0.23044 0.27703,-0.41898 0.41911,-0.41898 0.34776,0 0.13,0.60134 -0.26551,0.73317 -0.19335,0.0644 -0.25248,-0.0565 -0.1536,-0.31419 z m 20.22654,-2.12186 c -0.42385,-0.51071 0.0854,-1.47212 0.77971,-1.47212 0.69435,0 1.20357,0.96141 0.77972,1.47212 -0.17344,0.20898 -0.52431,0.37996 -0.77972,0.37996 -0.2554,0 -0.60627,-0.17098 -0.77971,-0.37996 z m 5.62409,-0.0529 c -0.21887,-0.57038 0.25115,-1.28695 0.84416,-1.28695 0.25933,0 0.59272,0.19217 0.74088,0.42706 0.40421,0.6408 0.0306,1.29273 -0.74088,1.29273 -0.38368,0 -0.75017,-0.18791 -0.84416,-0.43284 z M 48.334867,89.077396 c 2.31e-4,-21.329349 0.03907,-23.495182 0.418769,-23.349479 0.230183,0.08833 3.137572,0.160599 6.460864,0.160599 h 6.04235 l 0.258327,1.124479 c 0.201516,0.877184 9.933367,25.915701 11.174467,28.750138 0.240294,0.548787 0.331281,0.585841 0.649684,0.264583 0.203642,-0.205466 2.943074,-6.919453 6.087628,-14.91997 3.144554,-8.000517 5.858972,-14.636428 6.032039,-14.746469 0.173068,-0.110041 3.02334,-0.201898 6.333939,-0.204126 l 6.019271,-0.0041 V 89.171849 112.1906 H 91.85908 85.905955 l -0.0041,-6.28386 c -0.0022,-3.45611 -0.108257,-6.448381 -0.23562,-6.649474 -0.369538,-0.583469 -0.822667,0.338946 -3.463751,7.051014 l -2.422369,6.15622 -6.344948,-0.0708 -6.344948,-0.0708 -1.541782,-3.96875 c -0.84798,-2.18281 -2.045966,-5.26253 -2.662192,-6.84382 -0.776073,-1.991472 -1.190802,-2.763965 -1.349449,-2.513544 -0.12597,0.198842 -0.232684,3.159504 -0.23714,6.579244 -0.0045,3.41974 -0.09871,6.36023 -0.209453,6.53444 -0.144643,0.22752 -1.969219,0.3393 -6.478495,0.39687 l -6.277145,0.0801 z m 54.358503,23.040794 c -0.0711,-0.18534 -0.0972,-2.95354 -0.0579,-6.15156 l 0.0715,-5.81457 3.89011,-0.13229 c 2.32492,-0.07907 4.00815,-0.250627 4.18347,-0.426395 0.21504,-0.215574 -0.67261,-0.763065 -3.32449,-2.050521 -1.98982,-0.966032 -3.7685,-1.756422 -3.95264,-1.756422 -0.84839,0 -0.93907,-0.70863 -0.86765,-6.780072 l 0.0712,-6.052219 3.61704,-0.132292 c 1.98938,-0.07276 3.69635,-0.212075 3.79327,-0.309588 0.0969,-0.09751 -0.102,-0.349079 -0.44204,-0.559035 -1.43963,-0.888869 -5.44246,-2.982353 -6.17452,-3.229273 l -0.79375,-0.267729 -0.0709,-6.286155 -0.0709,-6.286155 14.22615,0.06845 14.22614,0.06845 0.1323,3.042709 0.13229,3.042708 3.04271,0.132292 3.0427,0.132291 0.0748,2.976563 0.0748,2.976562 h -4.98518 c -3.74008,0 -5.10584,0.08823 -5.46829,0.353256 -0.45134,0.330032 -0.42423,0.388557 0.41245,0.890216 1.28616,0.771157 5.57337,2.944399 6.12589,3.105293 0.43305,0.126106 0.46255,0.603743 0.39687,6.426546 l -0.071,6.290314 -2.29425,0.132292 c -1.26184,0.07276 -2.37911,0.217684 -2.48282,0.322052 -0.19866,0.199922 6.42217,3.485058 7.63953,3.790596 l 0.70942,0.178051 v 6.321325 6.32131 h -17.33852 c -13.79849,0 -17.36491,-0.0688 -17.46782,-0.33699 z m 37.98134,-46.353569 v -3.034312 l -3.10886,-0.08379 -3.10885,-0.08379 3.24114,-0.0569 3.24115,-0.05689 v 3.175 c 0,1.74625 -0.0595,3.175 -0.13229,3.175 -0.0728,0 -0.13229,-1.36544 -0.13229,-3.034311 z m -5.64445,2.593339 c -0.097,-0.09701 -0.17639,-1.34717 -0.17639,-2.778125 v -2.601736 h 2.77813 2.77812 v 2.778125 2.778125 h -2.60173 c -1.43096,0 -2.68111,-0.07937 -2.77813,-0.176389 z"
           id="path18" /><path
           style="fill:#717a84"
           d="m 103.29641,125.22881 c 0.4697,-0.0584 1.30313,-0.0594 1.85208,-0.002 0.54895,0.0573 0.16465,0.1051 -0.85399,0.10628 -1.01865,0.001 -1.46779,-0.0457 -0.99809,-0.10414 z m 14.84035,-2.30616 c 0.0973,-2.89677 -0.12895,-3.52 -1.32068,-3.63771 -0.46154,-0.0456 -0.88802,-0.23171 -0.94773,-0.41361 -0.0823,-0.2507 0.57435,-0.33073 2.71365,-0.33073 2.13931,0 2.79594,0.08 2.71362,0.33073 -0.0597,0.1819 -0.4566,0.36965 -0.88194,0.41723 -0.42534,0.0476 -0.85652,0.16664 -0.95817,0.26459 -0.10166,0.0979 -0.20519,1.458 -0.23007,3.02234 -0.0431,2.71158 -0.0715,2.8443 -0.60893,2.84487 -0.54135,5.7e-4 -0.56035,-0.0984 -0.47975,-2.49771 z m 4.75963,-0.95709 0.0811,-3.45513 0.94797,0.0812 c 0.92455,0.0792 0.96502,0.13023 1.63873,2.06561 0.44574,1.28049 0.83154,1.98437 1.08764,1.98437 0.2561,0 0.6419,-0.70388 1.08764,-1.98437 0.67371,-1.93538 0.71417,-1.98639 1.63873,-2.06561 l 0.94797,-0.0812 0.0811,3.45513 0.0811,3.45513 -0.66146,1.4e-4 c -0.65147,1.3e-4 -0.66012,-0.0281 -0.57299,-1.86815 0.15409,-3.25411 -0.36064,-3.40929 -1.48396,-0.44737 -0.3448,0.90915 -0.6382,1.80183 -0.652,1.98373 -0.0138,0.1819 -0.2224,0.33073 -0.46357,0.33073 -0.31413,0 -0.61573,-0.56518 -1.06347,-1.99285 -1.03783,-3.30924 -1.70112,-3.25511 -1.54102,0.12576 0.0871,1.84006 0.0785,1.86828 -0.57299,1.86815 l -0.66146,-1.4e-4 z m 9.26021,0.0151 0.0809,-3.44005 h 2.08306 c 2.72058,0 3.3747,0.55279 2.61837,2.21275 -0.23654,0.51915 -0.20988,0.77342 0.1323,1.26194 0.44678,0.63787 0.56045,1.75426 0.22603,2.21996 -0.56793,0.79088 -1.70614,1.18454 -3.42623,1.18498 l -1.79524,4.6e-4 z m 3.96727,2.06328 c 0.43262,-0.43262 0.40012,-1.40122 -0.0598,-1.78294 -0.20752,-0.17223 -0.89213,-0.2761 -1.52135,-0.23083 -1.03633,0.0746 -1.15212,0.15292 -1.22991,0.83227 -0.1415,1.23565 0.0952,1.499 1.34757,1.499 0.63031,0 1.28889,-0.14287 1.46351,-0.3175 z m -0.46144,-3.08087 c 0.38728,-0.3136 0.54222,-0.64531 0.43361,-0.92833 -0.23809,-0.62047 -1.34317,-1.06339 -2.1487,-0.86121 -0.56442,0.14166 -0.68097,0.32477 -0.68097,1.06986 0,0.49443 0.14883,0.95901 0.33073,1.03241 0.68973,0.27831 1.48395,0.15805 2.06533,-0.31273 z m -25.5102,1.09812 c -0.29796,-0.29797 -0.18147,-0.61016 0.22768,-0.61016 0.21829,0 0.39688,0.11203 0.39688,0.24896 0,0.33364 -0.41317,0.57259 -0.62456,0.3612 z m 12.89819,-5.4864 c -0.26343,-0.68651 0.10581,-1.25391 0.75592,-1.16159 0.43728,0.0621 0.59649,0.26125 0.59649,0.74616 0,0.48491 -0.15921,0.68407 -0.59649,0.74616 -0.3578,0.0508 -0.6603,-0.0815 -0.75592,-0.33073 z m 5.72083,-0.0152 c -0.46388,-0.55894 -0.13303,-1.19399 0.62205,-1.19399 0.73684,0 1.1142,0.68923 0.67024,1.22416 -0.39242,0.47284 -0.88436,0.46135 -1.29229,-0.0302 z m -80.436651,-27.387741 1.3e-5,-23.415625 6.284109,0.07992 c 3.45626,0.04396 6.382661,0.178227 6.503114,0.29838 0.120453,0.120154 0.31742,0.619972 0.437706,1.110706 0.25354,1.034381 11.079453,28.580532 11.342628,28.860915 0.09676,0.103081 0.322939,0.09656 0.502631,-0.0145 0.179693,-0.111056 2.895997,-6.742029 6.036233,-14.735496 3.140236,-7.993467 5.834532,-14.684208 5.987326,-14.868313 0.209205,-0.252076 1.772542,-0.334736 6.330826,-0.334736 h 6.05302 V 89.171849 112.1906 H 91.85908 85.905955 l -0.0041,-6.28386 c -0.0022,-3.45611 -0.09467,-6.426393 -0.205421,-6.600612 -0.111519,-0.175424 -0.348817,-0.225635 -0.531824,-0.11253 -0.18175,0.112327 -1.488296,3.112372 -2.903434,6.666762 l -2.572978,6.46253 h -6.298842 -6.298843 l -1.541929,-3.96875 c -4.054295,-10.435294 -3.738357,-9.731412 -4.133826,-9.209824 -0.283242,0.37357 -0.364703,1.859144 -0.371271,6.770734 -0.0064,4.78843 -0.08745,6.32025 -0.339144,6.40973 -0.181901,0.0647 -3.039521,0.15022 -6.350267,0.19013 l -6.019539,0.0726 z m 54.504691,17.067541 v -6.21962 h 3.80406 c 5.37601,0 5.4491,-0.226024 0.80256,-2.481861 -1.98422,-0.963312 -3.76871,-1.751477 -3.96555,-1.751477 -0.78543,0 -0.91591,-1.051239 -0.84469,-6.805308 l 0.0713,-5.7624 3.4936,-0.132292 c 3.72245,-0.140957 4.61272,-0.429967 3.47999,-1.129715 -1.57608,-0.973636 -5.45819,-2.991747 -6.11034,-3.176458 -0.43034,-0.121889 -0.7828,-0.443993 -0.86856,-0.79375 -0.0794,-0.32374 -0.11065,-3.148462 -0.0695,-6.27716 l 0.0748,-5.688542 14.08906,-0.06846 14.08906,-0.06847 v 2.758805 c 0,1.517342 0.0723,2.947135 0.1606,3.177318 0.13238,0.344984 0.65535,0.419227 2.97656,0.422566 1.54878,0.0022 2.96918,0.101263 3.15644,0.220077 0.25039,0.158862 0.3204,0.945428 0.26459,2.972511 l -0.0759,2.756486 -5.19932,0.07165 c -7.06291,0.09733 -7.07119,0.135114 -0.7538,3.441742 l 2.51354,1.31563 0.071,6.118301 0.071,6.118301 -2.0554,0.0084 c -1.36275,0.0056 -2.22404,0.136078 -2.55582,0.387246 -0.46095,0.348946 -0.22092,0.511357 3.04271,2.05881 1.94872,0.923989 3.87275,1.81974 4.27562,1.990558 l 0.73249,0.310572 -0.071,6.15501 -0.071,6.15501 -17.26406,0.0681 -17.26406,0.0681 z m 37.83542,-40.474769 v -3.034312 l -3.10886,-0.08379 -3.10885,-0.08379 3.24114,-0.0569 3.24115,-0.05689 v 3.175 c 0,1.74625 -0.0595,3.175 -0.13229,3.175 -0.0728,0 -0.13229,-1.36544 -0.13229,-3.034311 z m -5.64445,2.593339 c -0.097,-0.09701 -0.17639,-1.34717 -0.17639,-2.778125 v -2.601736 h 2.77813 2.77812 v 2.778125 2.778125 h -2.60173 c -1.43096,0 -2.68111,-0.07937 -2.77813,-0.176389 z"
           id="path17" /><path
           style="fill:#dc016d"
           d="m 103.30231,125.22837 c 0.47294,-0.0587 1.24685,-0.0587 1.71979,0 0.47294,0.0587 0.086,0.10671 -0.85989,0.10671 -0.94589,0 -1.33284,-0.048 -0.8599,-0.10671 z m 14.95399,0.008 c 0.25743,-0.0671 0.61462,-0.0627 0.79375,0.01 0.17914,0.0725 -0.0315,0.12736 -0.46805,0.12197 -0.43657,-0.005 -0.58313,-0.0647 -0.3257,-0.13178 z m 4.75747,9.7e-4 c 0.25466,-0.0666 0.67138,-0.0666 0.92604,0 0.25466,0.0665 0.0463,0.121 -0.46302,0.121 -0.50932,0 -0.71768,-0.0545 -0.46302,-0.121 z m 3.30729,0.007 c 0.1819,-0.0734 0.47956,-0.0734 0.66146,0 0.1819,0.0734 0.0331,0.13345 -0.33073,0.13345 -0.3638,0 -0.51263,-0.0601 -0.33073,-0.13345 z m 3.04774,-0.008 c 0.25743,-0.0671 0.61462,-0.0627 0.79375,0.01 0.17914,0.0725 -0.0315,0.12736 -0.46805,0.12197 -0.43657,-0.005 -0.58313,-0.0647 -0.3257,-0.13178 z m 3.43455,-0.009 c 0.5457,-0.0571 1.43867,-0.0571 1.98438,0 0.5457,0.0571 0.0992,0.10378 -0.99219,0.10378 -1.09141,0 -1.53789,-0.0467 -0.99219,-0.10378 z m -14.61823,-2.92935 c 0,-2.82708 -0.17085,-3.22791 -1.37583,-3.22791 -0.40746,0 -0.74083,-0.11907 -0.74083,-0.26459 0,-0.15782 1.01423,-0.26458 2.51354,-0.26458 1.4993,0 2.51354,0.10676 2.51354,0.26458 0,0.14552 -0.33338,0.26459 -0.74083,0.26459 -1.20499,0 -1.37584,0.40083 -1.37584,3.22791 0,2.12843 -0.0711,2.59292 -0.39687,2.59292 -0.32578,0 -0.39688,-0.46449 -0.39688,-2.59292 z m 4.88514,2.26631 c -0.0782,-0.20384 -0.10804,-1.61273 -0.0663,-3.13086 l 0.0759,-2.76024 h 0.79087 c 0.75083,0 0.83058,0.11052 1.57506,2.18281 0.56017,1.55928 0.91144,2.18282 1.22968,2.18282 0.32038,0 0.65824,-0.61301 1.20307,-2.18282 0.68131,-1.96308 0.83082,-2.19124 1.48518,-2.26653 l 0.7276,-0.0837 v 3.19257 c 0,2.66146 -0.066,3.19258 -0.39687,3.19258 -0.32001,0 -0.39688,-0.41373 -0.39688,-2.13607 0,-1.83549 -0.0609,-2.12403 -0.43253,-2.05052 -0.27157,0.0537 -0.69004,0.82314 -1.12448,2.06753 -0.93439,2.67644 -1.32507,2.69038 -2.17282,0.0776 -0.43559,-1.3425 -0.81939,-2.08767 -1.10343,-2.14237 -0.36886,-0.071 -0.4474,0.22936 -0.51311,1.96261 -0.0509,1.3432 -0.19119,2.08407 -0.40818,2.15586 -0.18182,0.0602 -0.39458,-0.0574 -0.47281,-0.26123 z m 9.19553,-2.78225 0.0745,-3.10885 1.60644,-0.0775 c 2.09495,-0.10113 3.02377,0.24687 3.02377,1.13292 0,0.36937 -0.14354,0.90144 -0.31899,1.18237 -0.26287,0.42093 -0.23185,0.60705 0.17639,1.05816 0.64372,0.71129 0.64578,2.09297 0.004,2.56237 -0.31522,0.23049 -1.23573,0.35943 -2.56604,0.35943 h -2.07449 z m 3.911,2.31511 c 0.29104,-0.29104 0.52917,-0.70776 0.52917,-0.92604 0,-0.74443 -1.00803,-1.45521 -2.06375,-1.45521 -1.21994,0 -1.64042,0.37301 -1.64042,1.45521 0,0.45111 0.14287,0.96308 0.3175,1.13771 0.51635,0.51635 2.25853,0.3873 2.8575,-0.21167 z m -0.37758,-2.84832 c 0.51702,-0.35403 0.60767,-1.05193 0.21032,-1.61922 -0.29748,-0.42471 -0.6709,-0.55954 -1.54971,-0.55954 -1.27554,0 -1.65716,0.49351 -1.34459,1.73888 0.13914,0.55439 0.31454,0.64181 1.28066,0.63831 0.61569,-0.002 1.24719,-0.0915 1.40332,-0.19843 z m -12.73499,-4.84999 c -0.0986,-0.15948 0.007,-0.47668 0.23569,-0.70487 0.33402,-0.33402 0.4918,-0.35109 0.80933,-0.0876 0.21694,0.18004 0.32924,0.49723 0.24956,0.70488 -0.17084,0.44518 -1.03733,0.50378 -1.29458,0.0875 z m 5.7492,-0.28416 c 0.0582,-0.41099 0.26372,-0.61649 0.61649,-0.61649 0.78797,0 0.70925,1.03283 -0.0873,1.14566 -0.51298,0.0727 -0.60183,-0.0162 -0.52917,-0.52917 z M 48.334854,88.973412 c 1.76e-4,-15.389753 0.09046,-23.34948 0.26485,-23.34948 0.145521,0 0.264584,0.119063 0.264584,0.264584 0,0.168678 2.194062,0.264583 6.05302,0.264583 6.439023,0 6.437099,-3.79e-4 6.714758,1.322917 0.07633,0.363802 2.630362,6.971771 5.675617,14.684375 4.42938,11.218124 5.631324,14.022916 6.009272,14.022916 0.377948,0 1.557214,-2.751872 5.895888,-13.758333 2.982895,-7.567083 5.552172,-14.175052 5.709507,-14.684375 0.508178,-1.645077 0.260214,-1.5875 6.836835,-1.5875 h 6.05302 V 89.171849 112.1906 H 91.85908 85.905955 l -0.0041,-6.28386 c -0.0022,-3.45611 -0.09153,-6.406895 -0.198438,-6.557285 -0.582106,-0.818827 -1.057906,0.02985 -3.49085,6.226565 l -2.545068,6.48229 -6.342074,0.0707 -6.342075,0.0707 -0.490775,-1.38181 c -1.359236,-3.82702 -4.775617,-12.182344 -4.867943,-11.905364 -0.05807,0.174222 -0.214483,0.249467 -0.347574,0.167212 -0.143753,-0.08884 -0.241986,2.491612 -0.241986,6.356652 0,4.96588 -0.0783,6.53405 -0.330729,6.62378 -0.181901,0.0647 -3.039521,0.15023 -6.350267,0.19014 l -6.019539,0.0726 z m 54.504436,17.264058 v -5.95312 h 3.82715 c 3.48941,0 3.85089,-0.0444 4.09623,-0.502781 0.24259,-0.453292 -0.085,-0.674654 -3.32768,-2.248958 -1.97821,-0.960398 -3.75971,-1.746179 -3.95889,-1.746179 -0.58432,0 -0.65826,-0.877925 -0.57933,-6.879166 l 0.0748,-5.688542 3.57243,-0.132292 c 4.3214,-0.160027 4.5215,-0.411017 1.58695,-1.990567 -2.0337,-1.094651 -4.0575,-2.158249 -4.7625,-2.502908 -0.3326,-0.162596 -0.40838,-1.185728 -0.4679,-6.316939 l -0.071,-6.122919 h 14.01939 14.0194 l 0.0745,3.108854 0.0745,3.108854 3.10886,0.07454 3.10885,0.07454 v 2.764135 2.764136 l -5.20048,0.07174 c -4.6901,0.0647 -5.20704,0.116541 -5.2673,0.528241 -0.0764,0.521709 0.44445,0.86885 4.31622,2.876927 l 2.71198,1.406558 v 6.162819 6.162819 h -2.26457 c -1.30136,0 -2.20097,0.102926 -2.11502,0.241985 0.0822,0.133092 -2e-5,0.296249 -0.18282,0.362572 -0.30736,0.111506 6.0632,3.333655 7.40668,3.74621 0.59522,0.182781 0.59531,0.183738 0.59531,6.382691 v 6.19988 h -17.19791 -17.19792 z m 37.83542,-40.472849 v -3.034312 l -3.10886,-0.08379 -3.10885,-0.08379 3.24114,-0.0569 3.24115,-0.05689 v 3.175 c 0,1.74625 -0.0595,3.175 -0.13229,3.175 -0.0728,0 -0.13229,-1.36544 -0.13229,-3.034311 z m -5.64445,2.593339 c -0.097,-0.09701 -0.17639,-1.34717 -0.17639,-2.778125 v -2.601736 h 2.77813 2.77812 v 2.778125 2.778125 h -2.60173 c -1.43096,0 -2.68111,-0.07937 -2.77813,-0.176389 z"
           id="path16" /><path
           style="fill:#a12569"
           d="m 103.30231,125.22837 c 0.47294,-0.0587 1.24685,-0.0587 1.71979,0 0.47294,0.0587 0.086,0.10671 -0.85989,0.10671 -0.94589,0 -1.33284,-0.048 -0.8599,-0.10671 z m 14.95399,0.008 c 0.25743,-0.0671 0.61462,-0.0627 0.79375,0.01 0.17914,0.0725 -0.0315,0.12736 -0.46805,0.12197 -0.43657,-0.005 -0.58313,-0.0647 -0.3257,-0.13178 z m 4.75747,9.7e-4 c 0.25466,-0.0666 0.67138,-0.0666 0.92604,0 0.25466,0.0665 0.0463,0.121 -0.46302,0.121 -0.50932,0 -0.71768,-0.0545 -0.46302,-0.121 z m 3.30729,0.007 c 0.1819,-0.0734 0.47956,-0.0734 0.66146,0 0.1819,0.0734 0.0331,0.13345 -0.33073,0.13345 -0.3638,0 -0.51263,-0.0601 -0.33073,-0.13345 z m 3.04774,-0.008 c 0.25743,-0.0671 0.61462,-0.0627 0.79375,0.01 0.17914,0.0725 -0.0315,0.12736 -0.46805,0.12197 -0.43657,-0.005 -0.58313,-0.0647 -0.3257,-0.13178 z m 3.43455,-0.009 c 0.5457,-0.0571 1.43867,-0.0571 1.98438,0 0.5457,0.0571 0.0992,0.10378 -0.99219,0.10378 -1.09141,0 -1.53789,-0.0467 -0.99219,-0.10378 z m -14.61823,-2.92935 c 0,-2.82708 -0.17085,-3.22791 -1.37583,-3.22791 -0.40746,0 -0.74083,-0.11907 -0.74083,-0.26459 0,-0.15782 1.01423,-0.26458 2.51354,-0.26458 1.4993,0 2.51354,0.10676 2.51354,0.26458 0,0.14552 -0.33338,0.26459 -0.74083,0.26459 -1.20499,0 -1.37584,0.40083 -1.37584,3.22791 0,2.12843 -0.0711,2.59292 -0.39687,2.59292 -0.32578,0 -0.39688,-0.46449 -0.39688,-2.59292 z m 4.88514,2.26631 c -0.0782,-0.20384 -0.10804,-1.61273 -0.0663,-3.13086 l 0.0759,-2.76024 h 0.79087 c 0.75083,0 0.83058,0.11052 1.57506,2.18281 0.56017,1.55928 0.91144,2.18282 1.22968,2.18282 0.32038,0 0.65824,-0.61301 1.20307,-2.18282 0.68131,-1.96308 0.83082,-2.19124 1.48518,-2.26653 l 0.7276,-0.0837 v 3.19257 c 0,2.66146 -0.066,3.19258 -0.39687,3.19258 -0.32001,0 -0.39688,-0.41373 -0.39688,-2.13607 0,-1.83549 -0.0609,-2.12403 -0.43253,-2.05052 -0.27157,0.0537 -0.69004,0.82314 -1.12448,2.06753 -0.93439,2.67644 -1.32507,2.69038 -2.17282,0.0776 -0.43559,-1.3425 -0.81939,-2.08767 -1.10343,-2.14237 -0.36886,-0.071 -0.4474,0.22936 -0.51311,1.96261 -0.0509,1.3432 -0.19119,2.08407 -0.40818,2.15586 -0.18182,0.0602 -0.39458,-0.0574 -0.47281,-0.26123 z m 9.19553,-2.78225 0.0745,-3.10885 1.60644,-0.0775 c 2.09495,-0.10113 3.02377,0.24687 3.02377,1.13292 0,0.36937 -0.14354,0.90144 -0.31899,1.18237 -0.26287,0.42093 -0.23185,0.60705 0.17639,1.05816 0.64372,0.71129 0.64578,2.09297 0.004,2.56237 -0.31522,0.23049 -1.23573,0.35943 -2.56604,0.35943 h -2.07449 z m 3.911,2.31511 c 0.29104,-0.29104 0.52917,-0.70776 0.52917,-0.92604 0,-0.74443 -1.00803,-1.45521 -2.06375,-1.45521 -1.21994,0 -1.64042,0.37301 -1.64042,1.45521 0,0.45111 0.14287,0.96308 0.3175,1.13771 0.51635,0.51635 2.25853,0.3873 2.8575,-0.21167 z m -0.37758,-2.84832 c 0.51702,-0.35403 0.60767,-1.05193 0.21032,-1.61922 -0.29748,-0.42471 -0.6709,-0.55954 -1.54971,-0.55954 -1.27554,0 -1.65716,0.49351 -1.34459,1.73888 0.13914,0.55439 0.31454,0.64181 1.28066,0.63831 0.61569,-0.002 1.24719,-0.0915 1.40332,-0.19843 z m -12.73499,-4.84999 c -0.0986,-0.15948 0.007,-0.47668 0.23569,-0.70487 0.33402,-0.33402 0.4918,-0.35109 0.80933,-0.0876 0.21694,0.18004 0.32924,0.49723 0.24956,0.70488 -0.17084,0.44518 -1.03733,0.50378 -1.29458,0.0875 z m 5.7492,-0.28416 c 0.0582,-0.41099 0.26372,-0.61649 0.61649,-0.61649 0.78797,0 0.70925,1.03283 -0.0873,1.14566 -0.51298,0.0727 -0.60183,-0.0162 -0.52917,-0.52917 z M 48.334854,88.973412 c 1.76e-4,-15.389753 0.09046,-23.34948 0.26485,-23.34948 0.145521,0 0.264584,0.119063 0.264584,0.264584 0,0.168652 2.187222,0.264583 6.0325,0.264583 4.339167,0 6.121623,0.08912 6.35,0.3175 0.41304,0.41304 0.4657,32.878239 0.05292,32.623125 -0.173649,-0.107321 -0.264584,2.072586 -0.264584,6.342686 0,4.96588 -0.0783,6.53405 -0.330729,6.62378 -0.181901,0.0647 -3.039521,0.15023 -6.350267,0.19014 l -6.019539,0.0726 z M 66.855955,112.0831 c 0,-0.22944 6.089878,-15.595573 6.240503,-15.746199 0.08448,-0.08448 0.274947,-0.153594 0.423267,-0.153594 0.232105,0 10.572907,-25.784302 11.426441,-28.491293 0.169019,-0.536045 0.3955,-1.062821 0.503292,-1.170612 0.107792,-0.107792 0.165303,7.176884 0.127803,16.188168 -0.05803,13.944836 -0.124116,16.384154 -0.443879,16.384154 -0.245065,0 -1.260636,2.253936 -2.920766,6.482296 l -2.545068,6.48229 -6.405796,0.0708 c -3.523189,0.039 -6.405797,0.0182 -6.405797,-0.0461 z m 35.983335,-5.84563 v -5.95312 h 3.84476 c 3.17349,0 3.87135,-0.0693 3.99706,-0.396876 0.13246,-0.345199 1.81663,-0.396875 12.93464,-0.396875 7.03029,0 12.97067,0.07227 13.20086,0.160599 0.36512,0.140112 0.41851,0.950152 0.41851,6.350002 v 6.1894 h -17.19791 -17.19792 z m 0.86033,-10.403237 c -0.35045,-0.04977 -0.65297,-0.321559 -0.73627,-0.661458 -0.0778,-0.317332 -0.10773,-3.136811 -0.0666,-6.265509 l 0.0748,-5.688542 3.70417,-0.132292 c 2.03729,-0.07276 3.6744,-0.223372 3.63802,-0.334694 -0.0772,-0.236124 22.84473,-0.292372 23.22558,-0.05699 0.15341,0.09481 0.25619,2.646573 0.25619,6.360427 v 6.202094 h -2.26457 c -1.41312,0 -2.20426,0.09759 -2.10416,0.259558 0.14748,0.238632 -24.16954,0.538643 -25.72719,0.317409 z m -0.54283,-17.298634 c -0.22838,-0.228377 -0.3175,-2.010833 -0.3175,-6.35 v -6.0325 h 14.01452 14.01452 l 0.0745,3.108854 0.0745,3.108854 3.10886,0.07454 3.10885,0.07454 v 2.764135 2.764136 l -5.22552,0.07174 c -4.00917,0.05504 -5.21012,0.148723 -5.15937,0.402468 0.0942,0.471011 -23.22264,0.48403 -23.69344,0.01323 z"
           id="path15" /><path
           style="fill:#7d3b68"
           d="m 103.30231,125.22837 c 0.47294,-0.0587 1.24685,-0.0587 1.71979,0 0.47294,0.0587 0.086,0.10671 -0.85989,0.10671 -0.94589,0 -1.33284,-0.048 -0.8599,-0.10671 z m 14.95399,0.008 c 0.25743,-0.0671 0.61462,-0.0627 0.79375,0.01 0.17914,0.0725 -0.0315,0.12736 -0.46805,0.12197 -0.43657,-0.005 -0.58313,-0.0647 -0.3257,-0.13178 z m 4.75747,9.7e-4 c 0.25466,-0.0666 0.67138,-0.0666 0.92604,0 0.25466,0.0665 0.0463,0.121 -0.46302,0.121 -0.50932,0 -0.71768,-0.0545 -0.46302,-0.121 z m 3.30729,0.007 c 0.1819,-0.0734 0.47956,-0.0734 0.66146,0 0.1819,0.0734 0.0331,0.13345 -0.33073,0.13345 -0.3638,0 -0.51263,-0.0601 -0.33073,-0.13345 z m 3.04774,-0.008 c 0.25743,-0.0671 0.61462,-0.0627 0.79375,0.01 0.17914,0.0725 -0.0315,0.12736 -0.46805,0.12197 -0.43657,-0.005 -0.58313,-0.0647 -0.3257,-0.13178 z m 3.43455,-0.009 c 0.5457,-0.0571 1.43867,-0.0571 1.98438,0 0.5457,0.0571 0.0992,0.10378 -0.99219,0.10378 -1.09141,0 -1.53789,-0.0467 -0.99219,-0.10378 z m -14.61823,-2.92935 c 0,-2.82708 -0.17085,-3.22791 -1.37583,-3.22791 -0.40746,0 -0.74083,-0.11907 -0.74083,-0.26459 0,-0.15782 1.01423,-0.26458 2.51354,-0.26458 1.4993,0 2.51354,0.10676 2.51354,0.26458 0,0.14552 -0.33338,0.26459 -0.74083,0.26459 -1.20499,0 -1.37584,0.40083 -1.37584,3.22791 0,2.12843 -0.0711,2.59292 -0.39687,2.59292 -0.32578,0 -0.39688,-0.46449 -0.39688,-2.59292 z m 4.88514,2.26631 c -0.0782,-0.20384 -0.10804,-1.61273 -0.0663,-3.13086 l 0.0759,-2.76024 h 0.79087 c 0.75083,0 0.83058,0.11052 1.57506,2.18281 0.56017,1.55928 0.91144,2.18282 1.22968,2.18282 0.32038,0 0.65824,-0.61301 1.20307,-2.18282 0.68131,-1.96308 0.83082,-2.19124 1.48518,-2.26653 l 0.7276,-0.0837 v 3.19257 c 0,2.66146 -0.066,3.19258 -0.39687,3.19258 -0.32001,0 -0.39688,-0.41373 -0.39688,-2.13607 0,-1.83549 -0.0609,-2.12403 -0.43253,-2.05052 -0.27157,0.0537 -0.69004,0.82314 -1.12448,2.06753 -0.93439,2.67644 -1.32507,2.69038 -2.17282,0.0776 -0.43559,-1.3425 -0.81939,-2.08767 -1.10343,-2.14237 -0.36886,-0.071 -0.4474,0.22936 -0.51311,1.96261 -0.0509,1.3432 -0.19119,2.08407 -0.40818,2.15586 -0.18182,0.0602 -0.39458,-0.0574 -0.47281,-0.26123 z m 9.19553,-2.78225 0.0745,-3.10885 1.60644,-0.0775 c 2.09495,-0.10113 3.02377,0.24687 3.02377,1.13292 0,0.36937 -0.14354,0.90144 -0.31899,1.18237 -0.26287,0.42093 -0.23185,0.60705 0.17639,1.05816 0.64372,0.71129 0.64578,2.09297 0.004,2.56237 -0.31522,0.23049 -1.23573,0.35943 -2.56604,0.35943 h -2.07449 z m 3.911,2.31511 c 0.29104,-0.29104 0.52917,-0.70776 0.52917,-0.92604 0,-0.74443 -1.00803,-1.45521 -2.06375,-1.45521 -1.21994,0 -1.64042,0.37301 -1.64042,1.45521 0,0.45111 0.14287,0.96308 0.3175,1.13771 0.51635,0.51635 2.25853,0.3873 2.8575,-0.21167 z m -0.37758,-2.84832 c 0.51702,-0.35403 0.60767,-1.05193 0.21032,-1.61922 -0.29748,-0.42471 -0.6709,-0.55954 -1.54971,-0.55954 -1.27554,0 -1.65716,0.49351 -1.34459,1.73888 0.13914,0.55439 0.31454,0.64181 1.28066,0.63831 0.61569,-0.002 1.24719,-0.0915 1.40332,-0.19843 z m -12.73499,-4.84999 c -0.0986,-0.15948 0.007,-0.47668 0.23569,-0.70487 0.33402,-0.33402 0.4918,-0.35109 0.80933,-0.0876 0.21694,0.18004 0.32924,0.49723 0.24956,0.70488 -0.17084,0.44518 -1.03733,0.50378 -1.29458,0.0875 z m 5.7492,-0.28416 c 0.0582,-0.41099 0.26372,-0.61649 0.61649,-0.61649 0.78797,0 0.70925,1.03283 -0.0873,1.14566 -0.51298,0.0727 -0.60183,-0.0162 -0.52917,-0.52917 z M 48.33486,88.973412 c 1.72e-4,-15.389757 0.09046,-23.34948 0.264844,-23.34948 0.145521,0 0.264584,0.116869 0.264584,0.259707 0,0.160404 2.35215,0.286864 6.151562,0.33073 l 6.151563,0.07102 -0.04926,22.724051 c -0.02709,12.49823 -0.146155,22.82063 -0.264583,22.93866 -0.118428,0.11804 -2.983644,0.25065 -6.367147,0.2947 l -6.151824,0.0801 z m 18.862194,22.891318 c 1.62031,-3.97308 6.008901,-15.31054 6.008901,-15.523355 0,-0.159698 0.126931,-0.260594 0.282069,-0.224213 0.231877,0.05438 10.324754,-24.961607 11.5021,-28.508855 0.299957,-0.903745 0.353851,1.328111 0.368965,15.279688 0.01299,11.986055 -0.06169,16.320401 -0.280355,16.271875 -0.165444,-0.03672 -1.435527,2.81797 -2.854615,6.41615 l -2.55656,6.48229 -6.303683,0.071 c -5.008899,0.0564 -6.275571,0.002 -6.166822,-0.26458 z m 35.642236,-5.62726 v -5.95312 h 3.82084 c 2.26183,0 3.88757,-0.10796 3.98437,-0.26458 0.10548,-0.170678 4.85344,-0.264588 13.37707,-0.264588 h 13.21355 v 6.217708 6.21771 h -17.19791 -17.19792 z m 0.11206,-11.112496 c -0.0712,-0.291042 -0.0957,-3.08901 -0.0546,-6.217708 l 0.0748,-5.688542 3.64898,-0.07368 c 2.00694,-0.04053 3.59588,-0.159588 3.53099,-0.264583 -0.0649,-0.104995 5.19869,-0.163678 11.69686,-0.130407 l 11.81484,0.06049 0.0709,6.223361 0.0709,6.223362 h -2.26937 c -1.24814,0 -2.21417,0.0893 -2.14672,0.198437 0.0675,0.109141 -5.82431,0.198438 -13.09282,0.198438 -12.99594,0 -13.21761,-0.0088 -13.34486,-0.529167 z m 0.0643,-16.712847 c -0.097,-0.09701 -0.17639,-2.894983 -0.17639,-6.217708 v -6.04132 h 14.01452 14.01452 l 0.0745,3.108854 0.0745,3.108854 3.10886,0.07454 3.10885,0.07454 v 2.769729 2.769728 h -5.14376 c -3.14377,0 -5.20734,0.102875 -5.30728,0.264583 -0.18385,0.297484 -23.4727,0.383899 -23.7684,0.08819 z"
           id="path14" /><path
           style="fill:#4b5b65"
           d="m 103.30231,125.22837 c 0.47294,-0.0587 1.24685,-0.0587 1.71979,0 0.47294,0.0587 0.086,0.10671 -0.85989,0.10671 -0.94589,0 -1.33284,-0.048 -0.8599,-0.10671 z m 14.95399,0.008 c 0.25743,-0.0671 0.61462,-0.0627 0.79375,0.01 0.17914,0.0725 -0.0315,0.12736 -0.46805,0.12197 -0.43657,-0.005 -0.58313,-0.0647 -0.3257,-0.13178 z m 4.75747,9.7e-4 c 0.25466,-0.0666 0.67138,-0.0666 0.92604,0 0.25466,0.0665 0.0463,0.121 -0.46302,0.121 -0.50932,0 -0.71768,-0.0545 -0.46302,-0.121 z m 3.30729,0.007 c 0.1819,-0.0734 0.47956,-0.0734 0.66146,0 0.1819,0.0734 0.0331,0.13345 -0.33073,0.13345 -0.3638,0 -0.51263,-0.0601 -0.33073,-0.13345 z m 3.04774,-0.008 c 0.25743,-0.0671 0.61462,-0.0627 0.79375,0.01 0.17914,0.0725 -0.0315,0.12736 -0.46805,0.12197 -0.43657,-0.005 -0.58313,-0.0647 -0.3257,-0.13178 z m 3.43455,-0.009 c 0.5457,-0.0571 1.43867,-0.0571 1.98438,0 0.5457,0.0571 0.0992,0.10378 -0.99219,0.10378 -1.09141,0 -1.53789,-0.0467 -0.99219,-0.10378 z m -14.61823,-2.92935 c 0,-2.82708 -0.17085,-3.22791 -1.37583,-3.22791 -0.40746,0 -0.74083,-0.11907 -0.74083,-0.26459 0,-0.15782 1.01423,-0.26458 2.51354,-0.26458 1.4993,0 2.51354,0.10676 2.51354,0.26458 0,0.14552 -0.33338,0.26459 -0.74083,0.26459 -1.20499,0 -1.37584,0.40083 -1.37584,3.22791 0,2.12843 -0.0711,2.59292 -0.39687,2.59292 -0.32578,0 -0.39688,-0.46449 -0.39688,-2.59292 z m 4.88514,2.26631 c -0.0782,-0.20384 -0.10804,-1.61273 -0.0663,-3.13086 l 0.0759,-2.76024 h 0.79087 c 0.75083,0 0.83058,0.11052 1.57506,2.18281 0.56017,1.55928 0.91144,2.18282 1.22968,2.18282 0.32038,0 0.65824,-0.61301 1.20307,-2.18282 0.68131,-1.96308 0.83082,-2.19124 1.48518,-2.26653 l 0.7276,-0.0837 v 3.19257 c 0,2.66146 -0.066,3.19258 -0.39687,3.19258 -0.32001,0 -0.39688,-0.41373 -0.39688,-2.13607 0,-1.83549 -0.0609,-2.12403 -0.43253,-2.05052 -0.27157,0.0537 -0.69004,0.82314 -1.12448,2.06753 -0.93439,2.67644 -1.32507,2.69038 -2.17282,0.0776 -0.43559,-1.3425 -0.81939,-2.08767 -1.10343,-2.14237 -0.36886,-0.071 -0.4474,0.22936 -0.51311,1.96261 -0.0509,1.3432 -0.19119,2.08407 -0.40818,2.15586 -0.18182,0.0602 -0.39458,-0.0574 -0.47281,-0.26123 z m 9.19553,-2.78225 0.0745,-3.10885 1.60644,-0.0775 c 2.09495,-0.10113 3.02377,0.24687 3.02377,1.13292 0,0.36937 -0.14354,0.90144 -0.31899,1.18237 -0.26287,0.42093 -0.23185,0.60705 0.17639,1.05816 0.64372,0.71129 0.64578,2.09297 0.004,2.56237 -0.31522,0.23049 -1.23573,0.35943 -2.56604,0.35943 h -2.07449 z m 3.911,2.31511 c 0.29104,-0.29104 0.52917,-0.70776 0.52917,-0.92604 0,-0.74443 -1.00803,-1.45521 -2.06375,-1.45521 -1.21994,0 -1.64042,0.37301 -1.64042,1.45521 0,0.45111 0.14287,0.96308 0.3175,1.13771 0.51635,0.51635 2.25853,0.3873 2.8575,-0.21167 z m -0.37758,-2.84832 c 0.51702,-0.35403 0.60767,-1.05193 0.21032,-1.61922 -0.29748,-0.42471 -0.6709,-0.55954 -1.54971,-0.55954 -1.27554,0 -1.65716,0.49351 -1.34459,1.73888 0.13914,0.55439 0.31454,0.64181 1.28066,0.63831 0.61569,-0.002 1.24719,-0.0915 1.40332,-0.19843 z m -12.73499,-4.84999 c -0.0986,-0.15948 0.007,-0.47668 0.23569,-0.70487 0.33402,-0.33402 0.4918,-0.35109 0.80933,-0.0876 0.21694,0.18004 0.32924,0.49723 0.24956,0.70488 -0.17084,0.44518 -1.03733,0.50378 -1.29458,0.0875 z m 5.7492,-0.28416 c 0.0582,-0.41099 0.26372,-0.61649 0.61649,-0.61649 0.78797,0 0.70925,1.03283 -0.0873,1.14566 -0.51298,0.0727 -0.60183,-0.0162 -0.52917,-0.52917 z M 48.334854,88.973412 c 1.76e-4,-15.389753 0.09046,-23.34948 0.26485,-23.34948 0.145521,0 0.264584,0.119063 0.264584,0.264584 0,0.16872 2.204861,0.264583 6.085417,0.264583 h 6.085416 v 22.894762 c 0,18.076719 -0.0696,22.919509 -0.330729,23.012329 -0.181901,0.0647 -3.039521,0.15023 -6.350267,0.19014 l -6.019539,0.0726 z m 19.605288,21.832998 c 0.303127,-0.76667 1.623134,-4.13237 2.93335,-7.47935 1.310215,-3.346982 2.597205,-6.561669 2.859976,-7.143753 0.262771,-0.582083 2.744647,-6.832864 5.515281,-13.890625 2.770633,-7.05776 5.218691,-13.24901 5.440129,-13.758333 0.366512,-0.843003 0.403543,0.468138 0.412971,14.621819 0.0071,10.622682 -0.07955,15.693398 -0.273449,16.007292 -0.156093,0.252687 -1.381106,3.2574 -2.722251,6.67714 l -2.438444,6.21771 -6.139351,0.071 -6.139351,0.071 z m 34.899148,-4.5268 v -5.91099 l 5.75469,-0.17378 c 3.16507,-0.0956 10.90414,-0.17407 17.19791,-0.17443 l 11.44323,-6.4e-4 v 6.08541 6.08542 h -17.19791 -17.19792 z m 0.0612,-17.041615 0.0711,-6.019271 15.41198,-0.06828 15.41198,-0.06828 v 6.087549 6.087549 h -15.48309 -15.4831 z m -0.0612,-16.999479 v -6.085417 h 14.01452 14.01452 l 0.0745,3.108854 0.0745,3.108854 3.10886,0.07454 3.10885,0.07454 v 2.727103 2.727102 l -7.73906,0.17443 c -4.25648,0.09594 -11.99555,0.174649 -17.19792,0.174918 l -9.45885,4.87e-4 z"
           id="path13" /></g></g></g></svg>
