<?xml version="1.0" encoding="UTF-8" standalone="no"?>
<svg
   width="100%"
   height="100%"
   viewBox="0 0 534 534"
   version="1.1"
   xml:space="preserve"
   style="fill-rule:evenodd;clip-rule:evenodd;stroke-linejoin:round;stroke-miterlimit:2;"
   id="svg3"
   sodipodi:docname="ttb.svg"
   inkscape:version="1.3.2 (091e20e, 2023-11-25, custom)"
   xmlns:inkscape="http://www.inkscape.org/namespaces/inkscape"
   xmlns:sodipodi="http://sodipodi.sourceforge.net/DTD/sodipodi-0.dtd"
   xmlns="http://www.w3.org/2000/svg"
   xmlns:svg="http://www.w3.org/2000/svg"><defs
     id="defs3" /><sodipodi:namedview
     id="namedview3"
     pagecolor="#ffffff"
     bordercolor="#000000"
     borderopacity="0.25"
     inkscape:showpageshadow="2"
     inkscape:pageopacity="0.0"
     inkscape:pagecheckerboard="0"
     inkscape:deskcolor="#d1d1d1"
     inkscape:zoom="0.5210609"
     inkscape:cx="196.71405"
     inkscape:cy="680.34274"
     inkscape:window-width="1920"
     inkscape:window-height="1001"
     inkscape:window-x="-9"
     inkscape:window-y="-9"
     inkscape:window-maximized="1"
     inkscape:current-layer="svg3" /><circle
     cx="425.71252"
     cy="301.95984"
     r="54.167"
     style="fill:none"
     id="circle1" /><path
     d="m 109.04644,356.12688 c -30,0 -54.167,-24.167 -54.167,-54.167 v -52.083 h 52.083 v -50 h -52.083 v -52.084 H 4.8794395 v 154.167 c 0,57.5 46.6670005,104.167 104.1670005,104.167 31.666,0 60,-14.167 79.166,-36.667 -15.416,-18.333 -25,-41.667 -25,-67.5 0,29.583 -24.583,54.167 -54.166,54.167 z"
     style="fill:#004de8;fill-opacity:1;fill-rule:nonzero"
     id="path1" /><path
     d="m 321.54644,301.95988 c 0,30 -24.167,54.167 -54.167,54.167 -30,0 -54.167,-24.167 -54.167,-54.167 v -52.083 h 52.084 v -50 h -52.084 v -52.084 h -50 v 154.167 c 0,25.833 9.584,49.583 25,67.5 19.167,22.5 47.5,36.667 79.167,36.667 31.667,0 60,-14.167 79.167,-36.667 -15.834,-18.333 -25,-41.667 -25,-67.5 z"
     style="fill:#ed861e;fill-opacity:1;fill-rule:nonzero"
     id="path2" /><path
     d="m 425.71248,197.79288 c -20,0 -38.333,5.417 -54.16604,15 v -65 h -50 v 154.167 c 0,25.833 9.583,49.583 25,67.5 19.166,22.5 47.50004,36.667 79.16604,36.667 57.5,0 104.167,-46.667 104.167,-104.167 0,-57.5 -46.667,-104.167 -104.167,-104.167 z m 0,158.334 c -30,0 -54.16604,-24.167 -54.16604,-54.167 0,-30 24.16604,-54.167 54.16604,-54.167 30,0 54.167,24.167 54.167,54.167 0,30 -24.583,54.167 -54.167,54.167 z"
     style="fill:#002c60;fill-opacity:1;fill-rule:nonzero"
     id="path3" /></svg>
