<?xml version="1.0" encoding="UTF-8" standalone="no"?>
<svg
   width="14.2222in"
   height="14.2222in"
   viewBox="0 0 1280 1280"
   version="1.1"
   id="svg1"
   sodipodi:docname="umayplus2.svg"
   xml:space="preserve"
   inkscape:version="1.3.2 (091e20e, 2023-11-25, custom)"
   xmlns:inkscape="http://www.inkscape.org/namespaces/inkscape"
   xmlns:sodipodi="http://sodipodi.sourceforge.net/DTD/sodipodi-0.dtd"
   xmlns="http://www.w3.org/2000/svg"
   xmlns:svg="http://www.w3.org/2000/svg"><defs
     id="defs1" /><sodipodi:namedview
     id="namedview1"
     pagecolor="#ffffff"
     bordercolor="#000000"
     borderopacity="0.25"
     inkscape:showpageshadow="2"
     inkscape:pageopacity="0.0"
     inkscape:pagecheckerboard="0"
     inkscape:deskcolor="#d1d1d1"
     inkscape:document-units="in"
     inkscape:zoom="0.4075883"
     inkscape:cx="701.68845"
     inkscape:cy="702.91517"
     inkscape:window-width="1920"
     inkscape:window-height="1001"
     inkscape:window-x="-9"
     inkscape:window-y="-9"
     inkscape:window-maximized="1"
     inkscape:current-layer="svg1" /><path
     style="fill:#fed50a;fill-opacity:1"
     d="m 819,471 c 0,0 58,0 58,0 0,0 3.57,12 3.57,12 0,0 8.06,30 8.06,30 0,0 31.22,121 31.22,121 0,0 14.28,56 14.28,56 0,0 7.87,30 7.87,30 0,0 18.85,-75 18.85,-75 0,0 30.02,-117 30.02,-117 0,0 10.76,-41 10.76,-41 0,0 5.07,-15.01 5.07,-15.01 0,0 7.3,-0.99 7.3,-0.99 0,0 50,0 50,0 -0.1,10.69 -8.6,37.91 -11.63,50 0,0 -26.22,102 -26.22,102 0,0 -17.03,67 -17.03,67 0,0 -59.24,228 -59.24,228 0,0 -26.51,103 -26.51,103 0,0 -5.5,22 -5.5,22 -0.6,2.38 -1.29,6.5 -3.38,7.98 -1.76,1.25 -5.36,1.02 -7.49,1.02 0,0 -51,0 -51,0 0,0 13.12,-52 13.12,-52 0,0 26.25,-103 26.25,-103 0,0 11.5,-43 11.5,-43 1.77,-7.06 4.71,-15.84 3.96,-23 0,0 -8.95,-35 -8.95,-35 0,0 -16.73,-65 -16.73,-65 0,0 -43.03,-167 -43.03,-167 0,0 -13.83,-54 -13.83,-54 -2.95,-10.37 -9.2,-29.01 -9.29,-39 z"
     id="path13" /><path
     style="fill:#fed50a;fill-opacity:1"
     d="m 361,835 c 0,0 -44,0 -44,0 -7.49,-0.14 -6.99,-2.26 -7,-9 0,0 0,-134 0,-134 0,0 0,-52 0,-52 0,0 0.91,-12 0.91,-12 2.03,-29.05 6.68,-58.35 16.09,-86 9.01,-26.44 21.23,-50.45 46,-65.4 9.08,-5.48 16.26,-8.58 27,-8.6 0,0 6,0 6,0 11.69,0.02 23.08,4.42 33,10.46 21.73,13.23 21.28,23.31 35,39.54 4.97,-11.54 17.12,-28.58 27,-36.1 20.2,-15.37 49.83,-19.43 72,-5.97 22.35,13.56 37.32,40.98 45.66,65.07 17.75,51.32 17.34,90.01 17.34,143 0,0 0,77 0,77 0,0 0,64 0,64 0,2.01 0.24,5.79 -1.02,7.41 -1.29,1.65 -4.99,2.06 -6.98,2.45 0,0 -20,0 -20,0 0,0 -14,1.14 -14,1.14 -2.13,0.01 -6.74,0.29 -8.4,-1.02 -1.86,-1.47 -1.58,-4.85 -1.6,-6.98 0,0 0,-15 0,-15 0,0 0,-57 0,-57 0,0 -1,-17 -1,-17 0,0 0,-69 0,-69 0,0 -0.96,-12 -0.96,-12 0,0 0,-16 0,-16 0,0 -0.95,-11 -0.95,-11 -1.12,-16.33 -2.6,-26.52 -8.69,-42 0,0 -3.28,-8 -3.28,-8 -2.75,-5 -10.95,-13.87 -16.12,-16.2 -12.37,-5.56 -27.78,0.74 -35.37,11.2 -11.97,16.51 -17.4,50.74 -17.63,71 0,0 -1,15 -1,15 0,0 0,129 0,129 0,0 0,30 0,30 0,2.69 0.44,9.44 -1.02,11.49 -2.07,2.89 -7.8,2.51 -10.98,2.51 0,0 -28,0 -28,0 -2.54,0 -9.55,0.44 -11.4,-1.02 -1.98,-1.57 -1.6,-5.68 -1.6,-7.98 0,0 0,-181 0,-181 -0.02,-10.1 -3.17,-24.84 -5.2,-35 -2.13,-10.63 -4.82,-24.23 -11.43,-32.96 -9.35,-12.35 -27.79,-19.69 -41.37,-9.49 -7.3,5.5 -13.45,17.8 -16.26,26.45 -6.48,20.01 -8.71,40.08 -8.74,61 0,0 -1,16 -1,16 0,0 0,30 0,30 0,0 0,120 0,120 z"
     id="path11" /><path
     style="fill:#fed50a;fill-opacity:1"
     d="m 1154,252 c 0,0 32,0 32,0 0,0 8.4,1.85 8.4,1.85 0,0 1.6,8.15 1.6,8.15 0,0 0,137 0,137 0,0 60,0 60,0 3.56,0 16.85,-0.94 18.83,1.57 1.42,1.81 1.17,6.17 1.17,8.43 0,0 0,56 0,56 -0.05,7.97 -1.18,7.99 -10,8 0,0 -30,0 -30,0 0,0 -16,1 -16,1 0,0 -24,0 -24,0 0,0 0,111 0,111 0,0 0,25 0,25 0,0 -1.02,7.4 -1.02,7.4 0,0 -7.98,1.6 -7.98,1.6 0,0 -33,0 -33,0 0,0 -1,-22 -1,-22 0,0 0,-123 0,-123 0,0 -23,0 -23,0 0,0 -17,-1 -17,-1 0,0 -40,0 -40,0 0,0 0,-74 0,-74 0,0 15,-1 15,-1 0,0 65,-1 65,-1 0,0 0,-122 0,-122 0,0 1,-15 1,-15 z"
     id="path10" /><path
     style="fill:#fed50a;fill-opacity:1"
     d="m 307,252 c 0,0 0,220 0,220 0,0 0,111 0,111 0,0 -0.96,11 -0.96,11 -1.63,37.38 -8.02,86.42 -19.38,122 -11.97,37.49 -30.01,77.6 -61.66,102.48 -13.11,10.31 -34.13,19.44 -51,19.52 0,0 -22,0 -22,0 -11.18,-0.13 -30.36,-6.37 -40,-11.95 C 91.19,813.99 71.94,789.14 60.78,768 47.27,742.39 38.76,714.15 32.58,686 25.23,652.56 20.4,618.25 20,584 c 0,0 -1,-15 -1,-15 0,0 0,-160 0,-160 0,0 0,-120 0,-120 0,0 0,-25 0,-25 0,-2.41 -0.4,-8.6 1.02,-10.4 1.57,-1.98 5.68,-1.6 7.98,-1.6 11.34,-0.02 32.82,-0.82 43,1 0,0 1,22 1,22 0,0 0,235 0,235 0,0 1,15 1,15 0.06,35.8 -1.02,71.65 5.61,107 6.45,34.4 17.58,80.81 49.39,100.53 5.16,3.2 10.28,4.95 16,6.8 4.9,1.58 12.92,3.54 18,3.66 6.65,0.15 9.64,-0.64 16,-2.11 43.47,-10.07 61.42,-60.63 68.25,-99.88 0,0 3.9,-23 3.9,-23 0,0 2.89,-33 2.89,-33 0,0 0,-12 0,-12 0,0 0.96,-12 0.96,-12 0,0 0,-248 0,-248 0,0 1,-15 1,-15 0,0 0,-46 0,-46 z"
     id="Selection" /><path
     style="fill:#00adf3;fill-opacity:1;fill-rule:evenodd;stroke-width:1.66546"
     d="M 146.59529,889.84886 C 128.51452,885.10033 112.11012,875.6144 98.578812,862.0831 63.580627,827.08491 41.369408,772.51984 28.623446,690.22763 22.613047,651.42249 21.50492,608.52603 22.041842,435.44872 l 0.511279,-164.81127 23.682505,-0.48155 c 19.829312,-0.40321 24.133848,-0.0302 26.456545,2.29249 2.491787,2.49178 2.784343,16.22098 2.875284,134.93285 0.1209,157.81971 1.936293,238.07464 5.912531,261.38135 9.370829,54.92712 24.898524,90.63628 47.287964,108.74851 13.14531,10.63406 33.29992,16.83707 50.66655,15.59372 37.35005,-2.67406 66.43824,-34.78863 79.79194,-88.09367 11.0983,-44.30198 10.92091,-40.88645 12.33236,-237.46761 0.70907,-98.75664 1.37735,-183.65613 1.48507,-188.66553 l 0.19586,-9.10799 h 26.02283 26.02284 l -10e-4,183.46097 c -0.001,181.51759 -0.48442,200.3962 -6.15841,240.71119 -15.177,107.83594 -58.95533,180.61724 -117.87296,195.96334 -12.90521,3.36138 -41.75644,3.33148 -54.65728,-0.0567 z"
     id="path1"
     transform="scale(0.9375014)" /><path
     id="Selection #1"
     fill="none"
     stroke="#000000"
     stroke-width="1"
     d="m 809.74186,796.37888 c 0,0 -19.00004,18.83001 -19.00004,18.83001 -8.19,7.37001 -23.06001,16.73001 -34.00002,18.94001 -3.73,0.44 -12.82001,0.28 -17.00001,0 -9.33001,0.12 -15.81001,-2.37 -24.00002,-6.53 -24.39001,-12.37001 -40.85002,-34.53002 -51.42003,-59.24004 -12.10001,-28.29001 -17.48001,-49.48003 -20.74001,-80.00004 0,0 -1.84,-22.00002 -1.84,-22.00002 0,0 0,-37.00002 0,-37.00002 0.09,-19.37001 7.79,-55.39003 14,-74.00004 8.89001,-26.65002 21.98002,-52.77003 44.00003,-70.92004 10.52001,-8.67001 23.00002,-15.91001 37.00003,-16.08001 8.25,-0.09 15.98001,-0.51 24.00001,1.75 30.54002,8.57 50.95006,37.54002 62.85006,65.25004 17.17,39.97002 19.79,70.71004 24.31,113.00006 0,0 9.68,83.00005 9.68,83.00005 0,0 9.01,78.00005 9.01,78.00005 0.67,5.65 4.42,20.47001 -1.08,23.83001 -2.27,1.39 -6.14,1.17 -8.77,1.17 0,0 -43,0 -43,0 z M 740.74179,563.67874 c -18.65001,3.49 -26.89002,16.63001 -34.23003,32.70002 -14.16,31.02002 -13.84,68.93004 -3.58,101.00006 5.25001,16.39001 19.71002,40.73003 38.81003,41.91003 19.54001,1.2 33.36002,-19.15002 40.13002,-34.91002 14.29001,-33.28002 12.42001,-74.76005 -0.93,-108.00007 -6.45,-16.06001 -20.99001,-34.19002 -40.20002,-32.70002 z" /><path
     style="fill:#e6008a;fill-opacity:1;fill-rule:evenodd;stroke-width:1.17766"
     d="m 778.56121,887.41199 c -6.128,-1.44064 -20.76728,-8.81645 -27.92041,-14.06733 -7.59699,-5.5767 -21.53077,-20.41694 -27.16371,-28.93083 C 707.2669,819.913 693.72932,780.37323 688.5891,742.5151 c -3.19821,-23.55513 -3.19148,-82.21729 0.0114,-99.7096 8.08015,-44.12855 19.86927,-76.56988 36.64273,-100.83355 9.66739,-13.98437 25.85834,-28.64867 38.6083,-34.96789 10.53729,-5.22256 10.78006,-5.27636 25.73973,-5.70456 12.59501,-0.3605 16.48009,-0.0127 23.40262,2.09534 23.72793,7.22543 43.88564,27.30967 59.89163,59.67334 15.10759,30.54712 22.37245,58.59831 28.1169,108.56543 1.74525,15.18076 7.64742,65.69129 13.11594,112.24562 5.46852,46.55433 10.20027,88.27413 10.515,92.71068 0.88396,12.46037 1.57871,12.17456 -29.59467,12.17456 h -26.0588 l -2.05289,-19.81667 c -1.12909,-10.89917 -2.32682,-20.09059 -2.66161,-20.42539 -0.3348,-0.3348 -6.85965,5.40855 -14.49967,12.76299 -14.17811,13.64813 -22.22316,19.30292 -34.84756,24.49404 -5.9542,2.44834 -9.12314,2.91142 -19.38505,2.83269 -6.747,-0.0518 -14.38437,-0.59183 -16.97193,-1.20014 z m 28.32828,-101.16077 c 13.94959,-6.95138 27.43521,-27.51155 34.14303,-52.05448 4.32093,-15.80967 5.4509,-44.91513 2.47355,-63.71336 -6.79997,-42.93329 -26.24557,-69.91193 -50.42638,-69.96107 -15.51946,-0.0315 -28.07082,9.82302 -37.88271,29.74318 -10.8234,21.97376 -15.04576,43.54988 -13.85713,70.80959 1.81393,41.6002 17.50549,75.78412 39.47256,85.99065 7.39267,3.43485 18.22895,3.09637 26.07708,-0.81451 z"
     id="path16"
     transform="scale(0.9375014)" /></svg>
